0
SECTION
2
HEADER
9
$ANGDIR
70
1
9
$AUNITS
70
0
9
$PROJECTNAME
1
katzenlaserturret
9
$TDCREATE
40
2458766.27005084
9
$INSUNITS
70
4
0
ENDSEC
0
SECTION
2
ENTITIES
0
POLYLINE
66
1
8
outline
10
0.0
20
0.0
30
0.0
70
1
0
VERTEX
8
0
10
0
20
0
30
0
0
VERTEX
8
0
10
100
20
0
30
0
0
VERTEX
8
0
10
100
20
80
30
0
0
VERTEX
8
0
10
0
20
80
30
0
0
VERTEX
8
0
10
0
20
0
30
0
0
SEQEND
0
POLYLINE
66
1
8
1_copper
10
0.0
20
0.0
30
0.0
70
1
0
VERTEX
8
0
10
42.019512500000005
20
33.889978125
30
0
42
0.3639697834944294
0
VERTEX
8
0
10
42.748200000000004
20
34.685203125
30
0
0
VERTEX
8
0
10
42.748200000000004
20
36.434796875
30
0
42
0.9572914311583669
0
VERTEX
8
0
10
41.0718
20
36.434796875
30
0
0
VERTEX
8
0
10
41.0718
20
34.685203125
30
0
0
VERTEX
8
0
10
41.078178125
20
34.6122875
30
0
0
VERTEX
8
0
10
41.090890625
20
34.540206250000004
30
0
0
VERTEX
8
0
10
41.109834375000005
20
34.469509375
30
0
0
VERTEX
8
0
10
41.134865625
20
34.400728125
30
0
0
VERTEX
8
0
10
41.165800000000004
20
34.334393750000004
30
0
0
VERTEX
8
0
10
41.202396875000005
20
34.27100625
30
0
0
VERTEX
8
0
10
41.244378125000004
20
34.21105
30
0
0
VERTEX
8
0
10
41.291425000000004
20
34.15498125
30
0
0
VERTEX
8
0
10
41.34318125
20
34.103225
30
0
0
VERTEX
8
0
10
41.39925
20
34.056178125
30
0
0
VERTEX
8
0
10
41.45920625
20
34.014196875
30
0
0
VERTEX
8
0
10
41.52259375
20
33.9776
30
0
0
VERTEX
8
0
10
41.588928125
20
33.946665625
30
0
0
VERTEX
8
0
10
41.657709375
20
33.921634375000004
30
0
0
VERTEX
8
0
10
41.72840625
20
33.902690625
30
0
0
VERTEX
8
0
10
41.8004875
20
33.889978125
30
0
0
VERTEX
8
0
10
41.873403125
20
33.8836
30
0
0
VERTEX
8
0
10
41.946596875000004
20
33.8836
30
0
0
SEQEND
0
POLYLINE
66
1
8
1_copper
10
0.0
20
0.0
30
0.0
70
1
0
VERTEX
8
0
10
16.6195125
20
33.889978125
30
0
42
0.3639697834944294
0
VERTEX
8
0
10
17.348200000000002
20
34.685203125
30
0
0
VERTEX
8
0
10
17.348200000000002
20
36.434796875
30
0
42
0.9572914311583669
0
VERTEX
8
0
10
15.671800000000001
20
36.434796875
30
0
0
VERTEX
8
0
10
15.671800000000001
20
34.685203125
30
0
0
VERTEX
8
0
10
15.678178125
20
34.6122875
30
0
0
VERTEX
8
0
10
15.690890625000002
20
34.540206250000004
30
0
0
VERTEX
8
0
10
15.709834375000002
20
34.469509375
30
0
0
VERTEX
8
0
10
15.734865625000001
20
34.400728125
30
0
0
VERTEX
8
0
10
15.7658
20
34.334393750000004
30
0
0
VERTEX
8
0
10
15.802396875000001
20
34.27100625
30
0
0
VERTEX
8
0
10
15.844378125
20
34.21105
30
0
0
VERTEX
8
0
10
15.891425
20
34.15498125
30
0
0
VERTEX
8
0
10
15.94318125
20
34.103225
30
0
0
VERTEX
8
0
10
15.99925
20
34.056178125
30
0
0
VERTEX
8
0
10
16.05920625
20
34.014196875
30
0
0
VERTEX
8
0
10
16.12259375
20
33.9776
30
0
0
VERTEX
8
0
10
16.188928125
20
33.946665625
30
0
0
VERTEX
8
0
10
16.257709375
20
33.921634375000004
30
0
0
VERTEX
8
0
10
16.32840625
20
33.902690625
30
0
0
VERTEX
8
0
10
16.4004875
20
33.889978125
30
0
0
VERTEX
8
0
10
16.473403125
20
33.8836
30
0
0
VERTEX
8
0
10
16.546596875000002
20
33.8836
30
0
0
SEQEND
0
POLYLINE
66
1
8
1_copper
10
0.0
20
0.0
30
0.0
70
1
0
VERTEX
8
0
10
19.1595125
20
33.889978125
30
0
42
0.3639697834944294
0
VERTEX
8
0
10
19.8882
20
34.685203125
30
0
0
VERTEX
8
0
10
19.8882
20
36.434796875
30
0
42
0.9572914311583669
0
VERTEX
8
0
10
18.2118
20
36.434796875
30
0
0
VERTEX
8
0
10
18.2118
20
34.685203125
30
0
0
VERTEX
8
0
10
18.218178125
20
34.6122875
30
0
0
VERTEX
8
0
10
18.230890625
20
34.540206250000004
30
0
0
VERTEX
8
0
10
18.249834375000002
20
34.469509375
30
0
0
VERTEX
8
0
10
18.274865625
20
34.400728125
30
0
0
VERTEX
8
0
10
18.3058
20
34.334393750000004
30
0
0
VERTEX
8
0
10
18.342396875000002
20
34.27100625
30
0
0
VERTEX
8
0
10
18.384378125
20
34.21105
30
0
0
VERTEX
8
0
10
18.431425
20
34.15498125
30
0
0
VERTEX
8
0
10
18.48318125
20
34.103225
30
0
0
VERTEX
8
0
10
18.53925
20
34.056178125
30
0
0
VERTEX
8
0
10
18.59920625
20
34.014196875
30
0
0
VERTEX
8
0
10
18.66259375
20
33.9776
30
0
0
VERTEX
8
0
10
18.728928125
20
33.946665625
30
0
0
VERTEX
8
0
10
18.797709375
20
33.921634375000004
30
0
0
VERTEX
8
0
10
18.86840625
20
33.902690625
30
0
0
VERTEX
8
0
10
18.9404875
20
33.889978125
30
0
0
VERTEX
8
0
10
19.013403125
20
33.8836
30
0
0
VERTEX
8
0
10
19.086596875
20
33.8836
30
0
0
SEQEND
0
POLYLINE
66
1
8
1_copper
10
0.0
20
0.0
30
0.0
70
1
0
VERTEX
8
0
10
26.779512500000003
20
33.889978125
30
0
42
0.3639697834944294
0
VERTEX
8
0
10
27.508200000000002
20
34.685203125
30
0
0
VERTEX
8
0
10
27.508200000000002
20
36.434796875
30
0
42
0.9572914311583669
0
VERTEX
8
0
10
25.8318
20
36.434796875
30
0
0
VERTEX
8
0
10
25.8318
20
34.685203125
30
0
0
VERTEX
8
0
10
25.838178125000002
20
34.6122875
30
0
0
VERTEX
8
0
10
25.850890625
20
34.540206250000004
30
0
0
VERTEX
8
0
10
25.869834375
20
34.469509375
30
0
0
VERTEX
8
0
10
25.894865625
20
34.400728125
30
0
0
VERTEX
8
0
10
25.925800000000002
20
34.334393750000004
30
0
0
VERTEX
8
0
10
25.962396875
20
34.27100625
30
0
0
VERTEX
8
0
10
26.004378125000002
20
34.21105
30
0
0
VERTEX
8
0
10
26.051425000000002
20
34.15498125
30
0
0
VERTEX
8
0
10
26.103181250000002
20
34.103225
30
0
0
VERTEX
8
0
10
26.15925
20
34.056178125
30
0
0
VERTEX
8
0
10
26.219206250000003
20
34.014196875
30
0
0
VERTEX
8
0
10
26.28259375
20
33.9776
30
0
0
VERTEX
8
0
10
26.348928125
20
33.946665625
30
0
0
VERTEX
8
0
10
26.417709375
20
33.921634375000004
30
0
0
VERTEX
8
0
10
26.48840625
20
33.902690625
30
0
0
VERTEX
8
0
10
26.5604875
20
33.889978125
30
0
0
VERTEX
8
0
10
26.633403125
20
33.8836
30
0
0
VERTEX
8
0
10
26.706596875000002
20
33.8836
30
0
0
SEQEND
0
POLYLINE
66
1
8
1_copper
10
0.0
20
0.0
30
0.0
70
1
0
VERTEX
8
0
10
29.319512500000002
20
33.889978125
30
0
42
0.3639697834944294
0
VERTEX
8
0
10
30.0482
20
34.685203125
30
0
0
VERTEX
8
0
10
30.0482
20
36.434796875
30
0
42
0.9572914311583669
0
VERTEX
8
0
10
28.3718
20
36.434796875
30
0
0
VERTEX
8
0
10
28.3718
20
34.685203125
30
0
0
VERTEX
8
0
10
28.378178125
20
34.6122875
30
0
0
VERTEX
8
0
10
28.390890625
20
34.540206250000004
30
0
0
VERTEX
8
0
10
28.409834375000003
20
34.469509375
30
0
0
VERTEX
8
0
10
28.434865625
20
34.400728125
30
0
0
VERTEX
8
0
10
28.4658
20
34.334393750000004
30
0
0
VERTEX
8
0
10
28.502396875000002
20
34.27100625
30
0
0
VERTEX
8
0
10
28.544378125
20
34.21105
30
0
0
VERTEX
8
0
10
28.591425
20
34.15498125
30
0
0
VERTEX
8
0
10
28.64318125
20
34.103225
30
0
0
VERTEX
8
0
10
28.699250000000003
20
34.056178125
30
0
0
VERTEX
8
0
10
28.759206250000002
20
34.014196875
30
0
0
VERTEX
8
0
10
28.822593750000003
20
33.9776
30
0
0
VERTEX
8
0
10
28.888928125
20
33.946665625
30
0
0
VERTEX
8
0
10
28.957709375
20
33.921634375000004
30
0
0
VERTEX
8
0
10
29.02840625
20
33.902690625
30
0
0
VERTEX
8
0
10
29.1004875
20
33.889978125
30
0
0
VERTEX
8
0
10
29.173403125
20
33.8836
30
0
0
VERTEX
8
0
10
29.246596875
20
33.8836
30
0
0
SEQEND
0
POLYLINE
66
1
8
1_copper
10
0.0
20
0.0
30
0.0
70
1
0
VERTEX
8
0
10
31.8595125
20
33.889978125
30
0
42
0.3639697834944294
0
VERTEX
8
0
10
32.5882
20
34.685203125
30
0
0
VERTEX
8
0
10
32.5882
20
36.434796875
30
0
42
0.9572914311583669
0
VERTEX
8
0
10
30.911800000000003
20
36.434796875
30
0
0
VERTEX
8
0
10
30.911800000000003
20
34.685203125
30
0
0
VERTEX
8
0
10
30.918178125
20
34.6122875
30
0
0
VERTEX
8
0
10
30.930890625
20
34.540206250000004
30
0
0
VERTEX
8
0
10
30.949834375000002
20
34.469509375
30
0
0
VERTEX
8
0
10
30.974865625000003
20
34.400728125
30
0
0
VERTEX
8
0
10
31.0058
20
34.334393750000004
30
0
0
VERTEX
8
0
10
31.042396875
20
34.27100625
30
0
0
VERTEX
8
0
10
31.084378125
20
34.21105
30
0
0
VERTEX
8
0
10
31.131425
20
34.15498125
30
0
0
VERTEX
8
0
10
31.18318125
20
34.103225
30
0
0
VERTEX
8
0
10
31.239250000000002
20
34.056178125
30
0
0
VERTEX
8
0
10
31.29920625
20
34.014196875
30
0
0
VERTEX
8
0
10
31.362593750000002
20
33.9776
30
0
0
VERTEX
8
0
10
31.428928125000002
20
33.946665625
30
0
0
VERTEX
8
0
10
31.497709375000003
20
33.921634375000004
30
0
0
VERTEX
8
0
10
31.568406250000002
20
33.902690625
30
0
0
VERTEX
8
0
10
31.640487500000003
20
33.889978125
30
0
0
VERTEX
8
0
10
31.713403125000003
20
33.8836
30
0
0
VERTEX
8
0
10
31.786596875
20
33.8836
30
0
0
SEQEND
0
POLYLINE
66
1
8
1_copper
10
0.0
20
0.0
30
0.0
70
1
0
VERTEX
8
0
10
34.3995125
20
33.889978125
30
0
42
0.3639697834944294
0
VERTEX
8
0
10
35.1282
20
34.685203125
30
0
0
VERTEX
8
0
10
35.1282
20
36.434796875
30
0
42
0.9572914311583669
0
VERTEX
8
0
10
33.4518
20
36.434796875
30
0
0
VERTEX
8
0
10
33.4518
20
34.685203125
30
0
0
VERTEX
8
0
10
33.458178125
20
34.6122875
30
0
0
VERTEX
8
0
10
33.470890625
20
34.540206250000004
30
0
0
VERTEX
8
0
10
33.489834375
20
34.469509375
30
0
0
VERTEX
8
0
10
33.514865625
20
34.400728125
30
0
0
VERTEX
8
0
10
33.5458
20
34.334393750000004
30
0
0
VERTEX
8
0
10
33.582396875
20
34.27100625
30
0
0
VERTEX
8
0
10
33.624378125
20
34.21105
30
0
0
VERTEX
8
0
10
33.671425
20
34.15498125
30
0
0
VERTEX
8
0
10
33.72318125
20
34.103225
30
0
0
VERTEX
8
0
10
33.779250000000005
20
34.056178125
30
0
0
VERTEX
8
0
10
33.839206250000004
20
34.014196875
30
0
0
VERTEX
8
0
10
33.90259375
20
33.9776
30
0
0
VERTEX
8
0
10
33.968928125000005
20
33.946665625
30
0
0
VERTEX
8
0
10
34.037709375
20
33.921634375000004
30
0
0
VERTEX
8
0
10
34.10840625
20
33.902690625
30
0
0
VERTEX
8
0
10
34.1804875
20
33.889978125
30
0
0
VERTEX
8
0
10
34.253403125
20
33.8836
30
0
0
VERTEX
8
0
10
34.326596875
20
33.8836
30
0
0
SEQEND
0
POLYLINE
66
1
8
1_copper
10
0.0
20
0.0
30
0.0
70
1
0
VERTEX
8
0
10
36.9395125
20
33.889978125
30
0
42
0.3639697834944294
0
VERTEX
8
0
10
37.6682
20
34.685203125
30
0
0
VERTEX
8
0
10
37.6682
20
36.434796875
30
0
42
0.9572914311583669
0
VERTEX
8
0
10
35.991800000000005
20
36.434796875
30
0
0
VERTEX
8
0
10
35.991800000000005
20
34.685203125
30
0
0
VERTEX
8
0
10
35.998178125
20
34.6122875
30
0
0
VERTEX
8
0
10
36.010890625
20
34.540206250000004
30
0
0
VERTEX
8
0
10
36.029834375
20
34.469509375
30
0
0
VERTEX
8
0
10
36.054865625000005
20
34.400728125
30
0
0
VERTEX
8
0
10
36.0858
20
34.334393750000004
30
0
0
VERTEX
8
0
10
36.122396875
20
34.27100625
30
0
0
VERTEX
8
0
10
36.164378125
20
34.21105
30
0
0
VERTEX
8
0
10
36.211425
20
34.15498125
30
0
0
VERTEX
8
0
10
36.26318125
20
34.103225
30
0
0
VERTEX
8
0
10
36.319250000000004
20
34.056178125
30
0
0
VERTEX
8
0
10
36.37920625
20
34.014196875
30
0
0
VERTEX
8
0
10
36.44259375
20
33.9776
30
0
0
VERTEX
8
0
10
36.508928125000004
20
33.946665625
30
0
0
VERTEX
8
0
10
36.577709375000005
20
33.921634375000004
30
0
0
VERTEX
8
0
10
36.64840625
20
33.902690625
30
0
0
VERTEX
8
0
10
36.720487500000004
20
33.889978125
30
0
0
VERTEX
8
0
10
36.793403125000005
20
33.8836
30
0
0
VERTEX
8
0
10
36.866596875
20
33.8836
30
0
0
SEQEND
0
POLYLINE
66
1
8
1_copper
10
0.0
20
0.0
30
0.0
70
1
0
VERTEX
8
0
10
39.4795125
20
33.889978125
30
0
42
0.3639697834944294
0
VERTEX
8
0
10
40.208200000000005
20
34.685203125
30
0
0
VERTEX
8
0
10
40.208200000000005
20
36.434796875
30
0
42
0.9572914311583669
0
VERTEX
8
0
10
38.531800000000004
20
36.434796875
30
0
0
VERTEX
8
0
10
38.531800000000004
20
34.685203125
30
0
0
VERTEX
8
0
10
38.538178125
20
34.6122875
30
0
0
VERTEX
8
0
10
38.550890625
20
34.540206250000004
30
0
0
VERTEX
8
0
10
38.569834375
20
34.469509375
30
0
0
VERTEX
8
0
10
38.594865625000004
20
34.400728125
30
0
0
VERTEX
8
0
10
38.625800000000005
20
34.334393750000004
30
0
0
VERTEX
8
0
10
38.662396875
20
34.27100625
30
0
0
VERTEX
8
0
10
38.704378125000005
20
34.21105
30
0
0
VERTEX
8
0
10
38.751425000000005
20
34.15498125
30
0
0
VERTEX
8
0
10
38.80318125
20
34.103225
30
0
0
VERTEX
8
0
10
38.85925
20
34.056178125
30
0
0
VERTEX
8
0
10
38.91920625
20
34.014196875
30
0
0
VERTEX
8
0
10
38.98259375
20
33.9776
30
0
0
VERTEX
8
0
10
39.048928125
20
33.946665625
30
0
0
VERTEX
8
0
10
39.117709375000004
20
33.921634375000004
30
0
0
VERTEX
8
0
10
39.18840625
20
33.902690625
30
0
0
VERTEX
8
0
10
39.2604875
20
33.889978125
30
0
0
VERTEX
8
0
10
39.333403125000004
20
33.8836
30
0
0
VERTEX
8
0
10
39.406596875000005
20
33.8836
30
0
0
SEQEND
0
POLYLINE
66
1
8
1_copper
10
0.0
20
0.0
30
0.0
70
1
0
VERTEX
8
0
10
47.0995125
20
33.889978125
30
0
42
0.3639697834944294
0
VERTEX
8
0
10
47.8282
20
34.685203125
30
0
0
VERTEX
8
0
10
47.8282
20
36.434796875
30
0
42
0.9572914311583669
0
VERTEX
8
0
10
46.1518
20
36.434796875
30
0
0
VERTEX
8
0
10
46.1518
20
34.685203125
30
0
0
VERTEX
8
0
10
46.158178125
20
34.6122875
30
0
0
VERTEX
8
0
10
46.170890625000006
20
34.540206250000004
30
0
0
VERTEX
8
0
10
46.189834375000004
20
34.469509375
30
0
0
VERTEX
8
0
10
46.214865625
20
34.400728125
30
0
0
VERTEX
8
0
10
46.2458
20
34.334393750000004
30
0
0
VERTEX
8
0
10
46.282396875
20
34.27100625
30
0
0
VERTEX
8
0
10
46.324378125
20
34.21105
30
0
0
VERTEX
8
0
10
46.371425
20
34.15498125
30
0
0
VERTEX
8
0
10
46.42318125
20
34.103225
30
0
0
VERTEX
8
0
10
46.47925
20
34.056178125
30
0
0
VERTEX
8
0
10
46.53920625
20
34.014196875
30
0
0
VERTEX
8
0
10
46.602593750000004
20
33.9776
30
0
0
VERTEX
8
0
10
46.668928125
20
33.946665625
30
0
0
VERTEX
8
0
10
46.737709375
20
33.921634375000004
30
0
0
VERTEX
8
0
10
46.808406250000004
20
33.902690625
30
0
0
VERTEX
8
0
10
46.8804875
20
33.889978125
30
0
0
VERTEX
8
0
10
46.953403125
20
33.8836
30
0
0
VERTEX
8
0
10
47.026596875
20
33.8836
30
0
0
SEQEND
0
POLYLINE
66
1
8
1_copper
10
0.0
20
0.0
30
0.0
70
1
0
VERTEX
8
0
10
16.6195125
20
5.949978125
30
0
42
0.3639697834944294
0
VERTEX
8
0
10
17.348200000000002
20
6.745203125000001
30
0
0
VERTEX
8
0
10
17.348200000000002
20
8.494796875
30
0
42
0.9572914311583669
0
VERTEX
8
0
10
15.671800000000001
20
8.494796875
30
0
0
VERTEX
8
0
10
15.671800000000001
20
6.745203125000001
30
0
0
VERTEX
8
0
10
15.678178125
20
6.6722875
30
0
0
VERTEX
8
0
10
15.690890625000002
20
6.60020625
30
0
0
VERTEX
8
0
10
15.709834375000002
20
6.529509375
30
0
0
VERTEX
8
0
10
15.734865625000001
20
6.460728125
30
0
0
VERTEX
8
0
10
15.7658
20
6.39439375
30
0
0
VERTEX
8
0
10
15.802396875000001
20
6.331006250000001
30
0
0
VERTEX
8
0
10
15.844378125
20
6.271050000000001
30
0
0
VERTEX
8
0
10
15.891425
20
6.21498125
30
0
0
VERTEX
8
0
10
15.94318125
20
6.163225000000001
30
0
0
VERTEX
8
0
10
15.99925
20
6.116178125
30
0
0
VERTEX
8
0
10
16.05920625
20
6.074196875
30
0
0
VERTEX
8
0
10
16.12259375
20
6.0376
30
0
0
VERTEX
8
0
10
16.188928125
20
6.006665625
30
0
0
VERTEX
8
0
10
16.257709375
20
5.9816343750000005
30
0
0
VERTEX
8
0
10
16.32840625
20
5.9626906250000005
30
0
0
VERTEX
8
0
10
16.4004875
20
5.949978125
30
0
0
VERTEX
8
0
10
16.473403125
20
5.9436
30
0
0
VERTEX
8
0
10
16.546596875000002
20
5.9436
30
0
0
SEQEND
0
POLYLINE
66
1
8
1_copper
10
0.0
20
0.0
30
0.0
70
1
0
VERTEX
8
0
10
19.1595125
20
5.949978125
30
0
42
0.3639697834944294
0
VERTEX
8
0
10
19.8882
20
6.745203125000001
30
0
0
VERTEX
8
0
10
19.8882
20
8.494796875
30
0
42
0.9572914311583669
0
VERTEX
8
0
10
18.2118
20
8.494796875
30
0
0
VERTEX
8
0
10
18.2118
20
6.745203125000001
30
0
0
VERTEX
8
0
10
18.218178125
20
6.6722875
30
0
0
VERTEX
8
0
10
18.230890625
20
6.60020625
30
0
0
VERTEX
8
0
10
18.249834375000002
20
6.529509375
30
0
0
VERTEX
8
0
10
18.274865625
20
6.460728125
30
0
0
VERTEX
8
0
10
18.3058
20
6.39439375
30
0
0
VERTEX
8
0
10
18.342396875000002
20
6.331006250000001
30
0
0
VERTEX
8
0
10
18.384378125
20
6.271050000000001
30
0
0
VERTEX
8
0
10
18.431425
20
6.21498125
30
0
0
VERTEX
8
0
10
18.48318125
20
6.163225000000001
30
0
0
VERTEX
8
0
10
18.53925
20
6.116178125
30
0
0
VERTEX
8
0
10
18.59920625
20
6.074196875
30
0
0
VERTEX
8
0
10
18.66259375
20
6.0376
30
0
0
VERTEX
8
0
10
18.728928125
20
6.006665625
30
0
0
VERTEX
8
0
10
18.797709375
20
5.9816343750000005
30
0
0
VERTEX
8
0
10
18.86840625
20
5.9626906250000005
30
0
0
VERTEX
8
0
10
18.9404875
20
5.949978125
30
0
0
VERTEX
8
0
10
19.013403125
20
5.9436
30
0
0
VERTEX
8
0
10
19.086596875
20
5.9436
30
0
0
SEQEND
0
POLYLINE
66
1
8
1_copper
10
0.0
20
0.0
30
0.0
70
1
0
VERTEX
8
0
10
21.6995125
20
5.949978125
30
0
42
0.3639697834944294
0
VERTEX
8
0
10
22.4282
20
6.745203125000001
30
0
0
VERTEX
8
0
10
22.4282
20
8.494796875
30
0
42
0.9572914311583669
0
VERTEX
8
0
10
20.7518
20
8.494796875
30
0
0
VERTEX
8
0
10
20.7518
20
6.745203125000001
30
0
0
VERTEX
8
0
10
20.758178125
20
6.6722875
30
0
0
VERTEX
8
0
10
20.770890625
20
6.60020625
30
0
0
VERTEX
8
0
10
20.789834375
20
6.529509375
30
0
0
VERTEX
8
0
10
20.814865625
20
6.460728125
30
0
0
VERTEX
8
0
10
20.8458
20
6.39439375
30
0
0
VERTEX
8
0
10
20.882396875
20
6.331006250000001
30
0
0
VERTEX
8
0
10
20.924378125
20
6.271050000000001
30
0
0
VERTEX
8
0
10
20.971425
20
6.21498125
30
0
0
VERTEX
8
0
10
21.02318125
20
6.163225000000001
30
0
0
VERTEX
8
0
10
21.079250000000002
20
6.116178125
30
0
0
VERTEX
8
0
10
21.13920625
20
6.074196875
30
0
0
VERTEX
8
0
10
21.202593750000002
20
6.0376
30
0
0
VERTEX
8
0
10
21.268928125000002
20
6.006665625
30
0
0
VERTEX
8
0
10
21.337709375
20
5.9816343750000005
30
0
0
VERTEX
8
0
10
21.408406250000002
20
5.9626906250000005
30
0
0
VERTEX
8
0
10
21.480487500000002
20
5.949978125
30
0
0
VERTEX
8
0
10
21.553403125000003
20
5.9436
30
0
0
VERTEX
8
0
10
21.626596875
20
5.9436
30
0
0
SEQEND
0
POLYLINE
66
1
8
1_copper
10
0.0
20
0.0
30
0.0
70
1
0
VERTEX
8
0
10
24.2395125
20
5.949978125
30
0
42
0.3639697834944294
0
VERTEX
8
0
10
24.9682
20
6.745203125000001
30
0
0
VERTEX
8
0
10
24.9682
20
8.494796875
30
0
42
0.9572914311583669
0
VERTEX
8
0
10
23.291800000000002
20
8.494796875
30
0
0
VERTEX
8
0
10
23.291800000000002
20
6.745203125000001
30
0
0
VERTEX
8
0
10
23.298178125
20
6.6722875
30
0
0
VERTEX
8
0
10
23.310890625000003
20
6.60020625
30
0
0
VERTEX
8
0
10
23.329834375
20
6.529509375
30
0
0
VERTEX
8
0
10
23.354865625000002
20
6.460728125
30
0
0
VERTEX
8
0
10
23.3858
20
6.39439375
30
0
0
VERTEX
8
0
10
23.422396875
20
6.331006250000001
30
0
0
VERTEX
8
0
10
23.464378125
20
6.271050000000001
30
0
0
VERTEX
8
0
10
23.511425000000003
20
6.21498125
30
0
0
VERTEX
8
0
10
23.56318125
20
6.163225000000001
30
0
0
VERTEX
8
0
10
23.61925
20
6.116178125
30
0
0
VERTEX
8
0
10
23.67920625
20
6.074196875
30
0
0
VERTEX
8
0
10
23.74259375
20
6.0376
30
0
0
VERTEX
8
0
10
23.808928125
20
6.006665625
30
0
0
VERTEX
8
0
10
23.877709375000002
20
5.9816343750000005
30
0
0
VERTEX
8
0
10
23.94840625
20
5.9626906250000005
30
0
0
VERTEX
8
0
10
24.0204875
20
5.949978125
30
0
0
VERTEX
8
0
10
24.093403125000002
20
5.9436
30
0
0
VERTEX
8
0
10
24.166596875
20
5.9436
30
0
0
SEQEND
0
POLYLINE
66
1
8
1_copper
10
0.0
20
0.0
30
0.0
70
1
0
VERTEX
8
0
10
26.779512500000003
20
5.949978125
30
0
42
0.3639697834944294
0
VERTEX
8
0
10
27.508200000000002
20
6.745203125000001
30
0
0
VERTEX
8
0
10
27.508200000000002
20
8.494796875
30
0
42
0.9572914311583669
0
VERTEX
8
0
10
25.8318
20
8.494796875
30
0
0
VERTEX
8
0
10
25.8318
20
6.745203125000001
30
0
0
VERTEX
8
0
10
25.838178125000002
20
6.6722875
30
0
0
VERTEX
8
0
10
25.850890625
20
6.60020625
30
0
0
VERTEX
8
0
10
25.869834375
20
6.529509375
30
0
0
VERTEX
8
0
10
25.894865625
20
6.460728125
30
0
0
VERTEX
8
0
10
25.925800000000002
20
6.39439375
30
0
0
VERTEX
8
0
10
25.962396875
20
6.331006250000001
30
0
0
VERTEX
8
0
10
26.004378125000002
20
6.271050000000001
30
0
0
VERTEX
8
0
10
26.051425000000002
20
6.21498125
30
0
0
VERTEX
8
0
10
26.103181250000002
20
6.163225000000001
30
0
0
VERTEX
8
0
10
26.15925
20
6.116178125
30
0
0
VERTEX
8
0
10
26.219206250000003
20
6.074196875
30
0
0
VERTEX
8
0
10
26.28259375
20
6.0376
30
0
0
VERTEX
8
0
10
26.348928125
20
6.006665625
30
0
0
VERTEX
8
0
10
26.417709375
20
5.9816343750000005
30
0
0
VERTEX
8
0
10
26.48840625
20
5.9626906250000005
30
0
0
VERTEX
8
0
10
26.5604875
20
5.949978125
30
0
0
VERTEX
8
0
10
26.633403125
20
5.9436
30
0
0
VERTEX
8
0
10
26.706596875000002
20
5.9436
30
0
0
SEQEND
0
POLYLINE
66
1
8
1_copper
10
0.0
20
0.0
30
0.0
70
1
0
VERTEX
8
0
10
29.319512500000002
20
5.949978125
30
0
42
0.3639697834944294
0
VERTEX
8
0
10
30.0482
20
6.745203125000001
30
0
0
VERTEX
8
0
10
30.0482
20
8.494796875
30
0
42
0.9572914311583669
0
VERTEX
8
0
10
28.3718
20
8.494796875
30
0
0
VERTEX
8
0
10
28.3718
20
6.745203125000001
30
0
0
VERTEX
8
0
10
28.378178125
20
6.6722875
30
0
0
VERTEX
8
0
10
28.390890625
20
6.60020625
30
0
0
VERTEX
8
0
10
28.409834375000003
20
6.529509375
30
0
0
VERTEX
8
0
10
28.434865625
20
6.460728125
30
0
0
VERTEX
8
0
10
28.4658
20
6.39439375
30
0
0
VERTEX
8
0
10
28.502396875000002
20
6.331006250000001
30
0
0
VERTEX
8
0
10
28.544378125
20
6.271050000000001
30
0
0
VERTEX
8
0
10
28.591425
20
6.21498125
30
0
0
VERTEX
8
0
10
28.64318125
20
6.163225000000001
30
0
0
VERTEX
8
0
10
28.699250000000003
20
6.116178125
30
0
0
VERTEX
8
0
10
28.759206250000002
20
6.074196875
30
0
0
VERTEX
8
0
10
28.822593750000003
20
6.0376
30
0
0
VERTEX
8
0
10
28.888928125
20
6.006665625
30
0
0
VERTEX
8
0
10
28.957709375
20
5.9816343750000005
30
0
0
VERTEX
8
0
10
29.02840625
20
5.9626906250000005
30
0
0
VERTEX
8
0
10
29.1004875
20
5.949978125
30
0
0
VERTEX
8
0
10
29.173403125
20
5.9436
30
0
0
VERTEX
8
0
10
29.246596875
20
5.9436
30
0
0
SEQEND
0
POLYLINE
66
1
8
1_copper
10
0.0
20
0.0
30
0.0
70
1
0
VERTEX
8
0
10
44.559512500000004
20
5.949978125
30
0
42
0.3639697834944294
0
VERTEX
8
0
10
45.2882
20
6.745203125000001
30
0
0
VERTEX
8
0
10
45.2882
20
8.494796875
30
0
42
0.9572914311583669
0
VERTEX
8
0
10
43.6118
20
8.494796875
30
0
0
VERTEX
8
0
10
43.6118
20
6.745203125000001
30
0
0
VERTEX
8
0
10
43.618178125
20
6.6722875
30
0
0
VERTEX
8
0
10
43.630890625
20
6.60020625
30
0
0
VERTEX
8
0
10
43.649834375000005
20
6.529509375
30
0
0
VERTEX
8
0
10
43.674865625
20
6.460728125
30
0
0
VERTEX
8
0
10
43.7058
20
6.39439375
30
0
0
VERTEX
8
0
10
43.742396875000004
20
6.331006250000001
30
0
0
VERTEX
8
0
10
43.784378125
20
6.271050000000001
30
0
0
VERTEX
8
0
10
43.831425
20
6.21498125
30
0
0
VERTEX
8
0
10
43.88318125
20
6.163225000000001
30
0
0
VERTEX
8
0
10
43.93925
20
6.116178125
30
0
0
VERTEX
8
0
10
43.99920625
20
6.074196875
30
0
0
VERTEX
8
0
10
44.062593750000005
20
6.0376
30
0
0
VERTEX
8
0
10
44.128928125
20
6.006665625
30
0
0
VERTEX
8
0
10
44.197709375
20
5.9816343750000005
30
0
0
VERTEX
8
0
10
44.268406250000005
20
5.9626906250000005
30
0
0
VERTEX
8
0
10
44.3404875
20
5.949978125
30
0
0
VERTEX
8
0
10
44.413403125
20
5.9436
30
0
0
VERTEX
8
0
10
44.486596875000004
20
5.9436
30
0
0
SEQEND
0
POLYLINE
66
1
8
1_copper
10
0.0
20
0.0
30
0.0
70
1
0
VERTEX
8
0
10
47.0995125
20
5.949978125
30
0
42
0.3639697834944294
0
VERTEX
8
0
10
47.8282
20
6.745203125000001
30
0
0
VERTEX
8
0
10
47.8282
20
8.494796875
30
0
42
0.9572914311583669
0
VERTEX
8
0
10
46.1518
20
8.494796875
30
0
0
VERTEX
8
0
10
46.1518
20
6.745203125000001
30
0
0
VERTEX
8
0
10
46.158178125
20
6.6722875
30
0
0
VERTEX
8
0
10
46.170890625000006
20
6.60020625
30
0
0
VERTEX
8
0
10
46.189834375000004
20
6.529509375
30
0
0
VERTEX
8
0
10
46.214865625
20
6.460728125
30
0
0
VERTEX
8
0
10
46.2458
20
6.39439375
30
0
0
VERTEX
8
0
10
46.282396875
20
6.331006250000001
30
0
0
VERTEX
8
0
10
46.324378125
20
6.271050000000001
30
0
0
VERTEX
8
0
10
46.371425
20
6.21498125
30
0
0
VERTEX
8
0
10
46.42318125
20
6.163225000000001
30
0
0
VERTEX
8
0
10
46.47925
20
6.116178125
30
0
0
VERTEX
8
0
10
46.53920625
20
6.074196875
30
0
0
VERTEX
8
0
10
46.602593750000004
20
6.0376
30
0
0
VERTEX
8
0
10
46.668928125
20
6.006665625
30
0
0
VERTEX
8
0
10
46.737709375
20
5.9816343750000005
30
0
0
VERTEX
8
0
10
46.808406250000004
20
5.9626906250000005
30
0
0
VERTEX
8
0
10
46.8804875
20
5.949978125
30
0
0
VERTEX
8
0
10
46.953403125
20
5.9436
30
0
0
VERTEX
8
0
10
47.026596875
20
5.9436
30
0
0
SEQEND
0
POLYLINE
66
1
8
16_copper
10
0.0
20
0.0
30
0.0
70
1
0
VERTEX
8
0
10
42.019512500000005
20
33.889978125
30
0
42
0.3639697834944294
0
VERTEX
8
0
10
42.748200000000004
20
34.685203125
30
0
0
VERTEX
8
0
10
42.748200000000004
20
36.434796875
30
0
42
0.9572914311583669
0
VERTEX
8
0
10
41.0718
20
36.434796875
30
0
0
VERTEX
8
0
10
41.0718
20
34.685203125
30
0
0
VERTEX
8
0
10
41.078178125
20
34.6122875
30
0
0
VERTEX
8
0
10
41.090890625
20
34.540206250000004
30
0
0
VERTEX
8
0
10
41.109834375000005
20
34.469509375
30
0
0
VERTEX
8
0
10
41.134865625
20
34.400728125
30
0
0
VERTEX
8
0
10
41.165800000000004
20
34.334393750000004
30
0
0
VERTEX
8
0
10
41.202396875000005
20
34.27100625
30
0
0
VERTEX
8
0
10
41.244378125000004
20
34.21105
30
0
0
VERTEX
8
0
10
41.291425000000004
20
34.15498125
30
0
0
VERTEX
8
0
10
41.34318125
20
34.103225
30
0
0
VERTEX
8
0
10
41.39925
20
34.056178125
30
0
0
VERTEX
8
0
10
41.45920625
20
34.014196875
30
0
0
VERTEX
8
0
10
41.52259375
20
33.9776
30
0
0
VERTEX
8
0
10
41.588928125
20
33.946665625
30
0
0
VERTEX
8
0
10
41.657709375
20
33.921634375000004
30
0
0
VERTEX
8
0
10
41.72840625
20
33.902690625
30
0
0
VERTEX
8
0
10
41.8004875
20
33.889978125
30
0
0
VERTEX
8
0
10
41.873403125
20
33.8836
30
0
0
VERTEX
8
0
10
41.946596875000004
20
33.8836
30
0
0
SEQEND
0
POLYLINE
66
1
8
16_copper
10
0.0
20
0.0
30
0.0
70
1
0
VERTEX
8
0
10
16.6195125
20
33.889978125
30
0
42
0.3639697834944294
0
VERTEX
8
0
10
17.348200000000002
20
34.685203125
30
0
0
VERTEX
8
0
10
17.348200000000002
20
36.434796875
30
0
42
0.9572914311583669
0
VERTEX
8
0
10
15.671800000000001
20
36.434796875
30
0
0
VERTEX
8
0
10
15.671800000000001
20
34.685203125
30
0
0
VERTEX
8
0
10
15.678178125
20
34.6122875
30
0
0
VERTEX
8
0
10
15.690890625000002
20
34.540206250000004
30
0
0
VERTEX
8
0
10
15.709834375000002
20
34.469509375
30
0
0
VERTEX
8
0
10
15.734865625000001
20
34.400728125
30
0
0
VERTEX
8
0
10
15.7658
20
34.334393750000004
30
0
0
VERTEX
8
0
10
15.802396875000001
20
34.27100625
30
0
0
VERTEX
8
0
10
15.844378125
20
34.21105
30
0
0
VERTEX
8
0
10
15.891425
20
34.15498125
30
0
0
VERTEX
8
0
10
15.94318125
20
34.103225
30
0
0
VERTEX
8
0
10
15.99925
20
34.056178125
30
0
0
VERTEX
8
0
10
16.05920625
20
34.014196875
30
0
0
VERTEX
8
0
10
16.12259375
20
33.9776
30
0
0
VERTEX
8
0
10
16.188928125
20
33.946665625
30
0
0
VERTEX
8
0
10
16.257709375
20
33.921634375000004
30
0
0
VERTEX
8
0
10
16.32840625
20
33.902690625
30
0
0
VERTEX
8
0
10
16.4004875
20
33.889978125
30
0
0
VERTEX
8
0
10
16.473403125
20
33.8836
30
0
0
VERTEX
8
0
10
16.546596875000002
20
33.8836
30
0
0
SEQEND
0
POLYLINE
66
1
8
16_copper
10
0.0
20
0.0
30
0.0
70
1
0
VERTEX
8
0
10
19.1595125
20
33.889978125
30
0
42
0.3639697834944294
0
VERTEX
8
0
10
19.8882
20
34.685203125
30
0
0
VERTEX
8
0
10
19.8882
20
36.434796875
30
0
42
0.9572914311583669
0
VERTEX
8
0
10
18.2118
20
36.434796875
30
0
0
VERTEX
8
0
10
18.2118
20
34.685203125
30
0
0
VERTEX
8
0
10
18.218178125
20
34.6122875
30
0
0
VERTEX
8
0
10
18.230890625
20
34.540206250000004
30
0
0
VERTEX
8
0
10
18.249834375000002
20
34.469509375
30
0
0
VERTEX
8
0
10
18.274865625
20
34.400728125
30
0
0
VERTEX
8
0
10
18.3058
20
34.334393750000004
30
0
0
VERTEX
8
0
10
18.342396875000002
20
34.27100625
30
0
0
VERTEX
8
0
10
18.384378125
20
34.21105
30
0
0
VERTEX
8
0
10
18.431425
20
34.15498125
30
0
0
VERTEX
8
0
10
18.48318125
20
34.103225
30
0
0
VERTEX
8
0
10
18.53925
20
34.056178125
30
0
0
VERTEX
8
0
10
18.59920625
20
34.014196875
30
0
0
VERTEX
8
0
10
18.66259375
20
33.9776
30
0
0
VERTEX
8
0
10
18.728928125
20
33.946665625
30
0
0
VERTEX
8
0
10
18.797709375
20
33.921634375000004
30
0
0
VERTEX
8
0
10
18.86840625
20
33.902690625
30
0
0
VERTEX
8
0
10
18.9404875
20
33.889978125
30
0
0
VERTEX
8
0
10
19.013403125
20
33.8836
30
0
0
VERTEX
8
0
10
19.086596875
20
33.8836
30
0
0
SEQEND
0
POLYLINE
66
1
8
16_copper
10
0.0
20
0.0
30
0.0
70
1
0
VERTEX
8
0
10
26.779512500000003
20
33.889978125
30
0
42
0.3639697834944294
0
VERTEX
8
0
10
27.508200000000002
20
34.685203125
30
0
0
VERTEX
8
0
10
27.508200000000002
20
36.434796875
30
0
42
0.9572914311583669
0
VERTEX
8
0
10
25.8318
20
36.434796875
30
0
0
VERTEX
8
0
10
25.8318
20
34.685203125
30
0
0
VERTEX
8
0
10
25.838178125000002
20
34.6122875
30
0
0
VERTEX
8
0
10
25.850890625
20
34.540206250000004
30
0
0
VERTEX
8
0
10
25.869834375
20
34.469509375
30
0
0
VERTEX
8
0
10
25.894865625
20
34.400728125
30
0
0
VERTEX
8
0
10
25.925800000000002
20
34.334393750000004
30
0
0
VERTEX
8
0
10
25.962396875
20
34.27100625
30
0
0
VERTEX
8
0
10
26.004378125000002
20
34.21105
30
0
0
VERTEX
8
0
10
26.051425000000002
20
34.15498125
30
0
0
VERTEX
8
0
10
26.103181250000002
20
34.103225
30
0
0
VERTEX
8
0
10
26.15925
20
34.056178125
30
0
0
VERTEX
8
0
10
26.219206250000003
20
34.014196875
30
0
0
VERTEX
8
0
10
26.28259375
20
33.9776
30
0
0
VERTEX
8
0
10
26.348928125
20
33.946665625
30
0
0
VERTEX
8
0
10
26.417709375
20
33.921634375000004
30
0
0
VERTEX
8
0
10
26.48840625
20
33.902690625
30
0
0
VERTEX
8
0
10
26.5604875
20
33.889978125
30
0
0
VERTEX
8
0
10
26.633403125
20
33.8836
30
0
0
VERTEX
8
0
10
26.706596875000002
20
33.8836
30
0
0
SEQEND
0
POLYLINE
66
1
8
16_copper
10
0.0
20
0.0
30
0.0
70
1
0
VERTEX
8
0
10
29.319512500000002
20
33.889978125
30
0
42
0.3639697834944294
0
VERTEX
8
0
10
30.0482
20
34.685203125
30
0
0
VERTEX
8
0
10
30.0482
20
36.434796875
30
0
42
0.9572914311583669
0
VERTEX
8
0
10
28.3718
20
36.434796875
30
0
0
VERTEX
8
0
10
28.3718
20
34.685203125
30
0
0
VERTEX
8
0
10
28.378178125
20
34.6122875
30
0
0
VERTEX
8
0
10
28.390890625
20
34.540206250000004
30
0
0
VERTEX
8
0
10
28.409834375000003
20
34.469509375
30
0
0
VERTEX
8
0
10
28.434865625
20
34.400728125
30
0
0
VERTEX
8
0
10
28.4658
20
34.334393750000004
30
0
0
VERTEX
8
0
10
28.502396875000002
20
34.27100625
30
0
0
VERTEX
8
0
10
28.544378125
20
34.21105
30
0
0
VERTEX
8
0
10
28.591425
20
34.15498125
30
0
0
VERTEX
8
0
10
28.64318125
20
34.103225
30
0
0
VERTEX
8
0
10
28.699250000000003
20
34.056178125
30
0
0
VERTEX
8
0
10
28.759206250000002
20
34.014196875
30
0
0
VERTEX
8
0
10
28.822593750000003
20
33.9776
30
0
0
VERTEX
8
0
10
28.888928125
20
33.946665625
30
0
0
VERTEX
8
0
10
28.957709375
20
33.921634375000004
30
0
0
VERTEX
8
0
10
29.02840625
20
33.902690625
30
0
0
VERTEX
8
0
10
29.1004875
20
33.889978125
30
0
0
VERTEX
8
0
10
29.173403125
20
33.8836
30
0
0
VERTEX
8
0
10
29.246596875
20
33.8836
30
0
0
SEQEND
0
POLYLINE
66
1
8
16_copper
10
0.0
20
0.0
30
0.0
70
1
0
VERTEX
8
0
10
31.8595125
20
33.889978125
30
0
42
0.3639697834944294
0
VERTEX
8
0
10
32.5882
20
34.685203125
30
0
0
VERTEX
8
0
10
32.5882
20
36.434796875
30
0
42
0.9572914311583669
0
VERTEX
8
0
10
30.911800000000003
20
36.434796875
30
0
0
VERTEX
8
0
10
30.911800000000003
20
34.685203125
30
0
0
VERTEX
8
0
10
30.918178125
20
34.6122875
30
0
0
VERTEX
8
0
10
30.930890625
20
34.540206250000004
30
0
0
VERTEX
8
0
10
30.949834375000002
20
34.469509375
30
0
0
VERTEX
8
0
10
30.974865625000003
20
34.400728125
30
0
0
VERTEX
8
0
10
31.0058
20
34.334393750000004
30
0
0
VERTEX
8
0
10
31.042396875
20
34.27100625
30
0
0
VERTEX
8
0
10
31.084378125
20
34.21105
30
0
0
VERTEX
8
0
10
31.131425
20
34.15498125
30
0
0
VERTEX
8
0
10
31.18318125
20
34.103225
30
0
0
VERTEX
8
0
10
31.239250000000002
20
34.056178125
30
0
0
VERTEX
8
0
10
31.29920625
20
34.014196875
30
0
0
VERTEX
8
0
10
31.362593750000002
20
33.9776
30
0
0
VERTEX
8
0
10
31.428928125000002
20
33.946665625
30
0
0
VERTEX
8
0
10
31.497709375000003
20
33.921634375000004
30
0
0
VERTEX
8
0
10
31.568406250000002
20
33.902690625
30
0
0
VERTEX
8
0
10
31.640487500000003
20
33.889978125
30
0
0
VERTEX
8
0
10
31.713403125000003
20
33.8836
30
0
0
VERTEX
8
0
10
31.786596875
20
33.8836
30
0
0
SEQEND
0
POLYLINE
66
1
8
16_copper
10
0.0
20
0.0
30
0.0
70
1
0
VERTEX
8
0
10
34.3995125
20
33.889978125
30
0
42
0.3639697834944294
0
VERTEX
8
0
10
35.1282
20
34.685203125
30
0
0
VERTEX
8
0
10
35.1282
20
36.434796875
30
0
42
0.9572914311583669
0
VERTEX
8
0
10
33.4518
20
36.434796875
30
0
0
VERTEX
8
0
10
33.4518
20
34.685203125
30
0
0
VERTEX
8
0
10
33.458178125
20
34.6122875
30
0
0
VERTEX
8
0
10
33.470890625
20
34.540206250000004
30
0
0
VERTEX
8
0
10
33.489834375
20
34.469509375
30
0
0
VERTEX
8
0
10
33.514865625
20
34.400728125
30
0
0
VERTEX
8
0
10
33.5458
20
34.334393750000004
30
0
0
VERTEX
8
0
10
33.582396875
20
34.27100625
30
0
0
VERTEX
8
0
10
33.624378125
20
34.21105
30
0
0
VERTEX
8
0
10
33.671425
20
34.15498125
30
0
0
VERTEX
8
0
10
33.72318125
20
34.103225
30
0
0
VERTEX
8
0
10
33.779250000000005
20
34.056178125
30
0
0
VERTEX
8
0
10
33.839206250000004
20
34.014196875
30
0
0
VERTEX
8
0
10
33.90259375
20
33.9776
30
0
0
VERTEX
8
0
10
33.968928125000005
20
33.946665625
30
0
0
VERTEX
8
0
10
34.037709375
20
33.921634375000004
30
0
0
VERTEX
8
0
10
34.10840625
20
33.902690625
30
0
0
VERTEX
8
0
10
34.1804875
20
33.889978125
30
0
0
VERTEX
8
0
10
34.253403125
20
33.8836
30
0
0
VERTEX
8
0
10
34.326596875
20
33.8836
30
0
0
SEQEND
0
POLYLINE
66
1
8
16_copper
10
0.0
20
0.0
30
0.0
70
1
0
VERTEX
8
0
10
36.9395125
20
33.889978125
30
0
42
0.3639697834944294
0
VERTEX
8
0
10
37.6682
20
34.685203125
30
0
0
VERTEX
8
0
10
37.6682
20
36.434796875
30
0
42
0.9572914311583669
0
VERTEX
8
0
10
35.991800000000005
20
36.434796875
30
0
0
VERTEX
8
0
10
35.991800000000005
20
34.685203125
30
0
0
VERTEX
8
0
10
35.998178125
20
34.6122875
30
0
0
VERTEX
8
0
10
36.010890625
20
34.540206250000004
30
0
0
VERTEX
8
0
10
36.029834375
20
34.469509375
30
0
0
VERTEX
8
0
10
36.054865625000005
20
34.400728125
30
0
0
VERTEX
8
0
10
36.0858
20
34.334393750000004
30
0
0
VERTEX
8
0
10
36.122396875
20
34.27100625
30
0
0
VERTEX
8
0
10
36.164378125
20
34.21105
30
0
0
VERTEX
8
0
10
36.211425
20
34.15498125
30
0
0
VERTEX
8
0
10
36.26318125
20
34.103225
30
0
0
VERTEX
8
0
10
36.319250000000004
20
34.056178125
30
0
0
VERTEX
8
0
10
36.37920625
20
34.014196875
30
0
0
VERTEX
8
0
10
36.44259375
20
33.9776
30
0
0
VERTEX
8
0
10
36.508928125000004
20
33.946665625
30
0
0
VERTEX
8
0
10
36.577709375000005
20
33.921634375000004
30
0
0
VERTEX
8
0
10
36.64840625
20
33.902690625
30
0
0
VERTEX
8
0
10
36.720487500000004
20
33.889978125
30
0
0
VERTEX
8
0
10
36.793403125000005
20
33.8836
30
0
0
VERTEX
8
0
10
36.866596875
20
33.8836
30
0
0
SEQEND
0
POLYLINE
66
1
8
16_copper
10
0.0
20
0.0
30
0.0
70
1
0
VERTEX
8
0
10
39.4795125
20
33.889978125
30
0
42
0.3639697834944294
0
VERTEX
8
0
10
40.208200000000005
20
34.685203125
30
0
0
VERTEX
8
0
10
40.208200000000005
20
36.434796875
30
0
42
0.9572914311583669
0
VERTEX
8
0
10
38.531800000000004
20
36.434796875
30
0
0
VERTEX
8
0
10
38.531800000000004
20
34.685203125
30
0
0
VERTEX
8
0
10
38.538178125
20
34.6122875
30
0
0
VERTEX
8
0
10
38.550890625
20
34.540206250000004
30
0
0
VERTEX
8
0
10
38.569834375
20
34.469509375
30
0
0
VERTEX
8
0
10
38.594865625000004
20
34.400728125
30
0
0
VERTEX
8
0
10
38.625800000000005
20
34.334393750000004
30
0
0
VERTEX
8
0
10
38.662396875
20
34.27100625
30
0
0
VERTEX
8
0
10
38.704378125000005
20
34.21105
30
0
0
VERTEX
8
0
10
38.751425000000005
20
34.15498125
30
0
0
VERTEX
8
0
10
38.80318125
20
34.103225
30
0
0
VERTEX
8
0
10
38.85925
20
34.056178125
30
0
0
VERTEX
8
0
10
38.91920625
20
34.014196875
30
0
0
VERTEX
8
0
10
38.98259375
20
33.9776
30
0
0
VERTEX
8
0
10
39.048928125
20
33.946665625
30
0
0
VERTEX
8
0
10
39.117709375000004
20
33.921634375000004
30
0
0
VERTEX
8
0
10
39.18840625
20
33.902690625
30
0
0
VERTEX
8
0
10
39.2604875
20
33.889978125
30
0
0
VERTEX
8
0
10
39.333403125000004
20
33.8836
30
0
0
VERTEX
8
0
10
39.406596875000005
20
33.8836
30
0
0
SEQEND
0
POLYLINE
66
1
8
16_copper
10
0.0
20
0.0
30
0.0
70
1
0
VERTEX
8
0
10
47.0995125
20
33.889978125
30
0
42
0.3639697834944294
0
VERTEX
8
0
10
47.8282
20
34.685203125
30
0
0
VERTEX
8
0
10
47.8282
20
36.434796875
30
0
42
0.9572914311583669
0
VERTEX
8
0
10
46.1518
20
36.434796875
30
0
0
VERTEX
8
0
10
46.1518
20
34.685203125
30
0
0
VERTEX
8
0
10
46.158178125
20
34.6122875
30
0
0
VERTEX
8
0
10
46.170890625000006
20
34.540206250000004
30
0
0
VERTEX
8
0
10
46.189834375000004
20
34.469509375
30
0
0
VERTEX
8
0
10
46.214865625
20
34.400728125
30
0
0
VERTEX
8
0
10
46.2458
20
34.334393750000004
30
0
0
VERTEX
8
0
10
46.282396875
20
34.27100625
30
0
0
VERTEX
8
0
10
46.324378125
20
34.21105
30
0
0
VERTEX
8
0
10
46.371425
20
34.15498125
30
0
0
VERTEX
8
0
10
46.42318125
20
34.103225
30
0
0
VERTEX
8
0
10
46.47925
20
34.056178125
30
0
0
VERTEX
8
0
10
46.53920625
20
34.014196875
30
0
0
VERTEX
8
0
10
46.602593750000004
20
33.9776
30
0
0
VERTEX
8
0
10
46.668928125
20
33.946665625
30
0
0
VERTEX
8
0
10
46.737709375
20
33.921634375000004
30
0
0
VERTEX
8
0
10
46.808406250000004
20
33.902690625
30
0
0
VERTEX
8
0
10
46.8804875
20
33.889978125
30
0
0
VERTEX
8
0
10
46.953403125
20
33.8836
30
0
0
VERTEX
8
0
10
47.026596875
20
33.8836
30
0
0
SEQEND
0
POLYLINE
66
1
8
16_copper
10
0.0
20
0.0
30
0.0
70
1
0
VERTEX
8
0
10
16.6195125
20
5.949978125
30
0
42
0.3639697834944294
0
VERTEX
8
0
10
17.348200000000002
20
6.745203125000001
30
0
0
VERTEX
8
0
10
17.348200000000002
20
8.494796875
30
0
42
0.9572914311583669
0
VERTEX
8
0
10
15.671800000000001
20
8.494796875
30
0
0
VERTEX
8
0
10
15.671800000000001
20
6.745203125000001
30
0
0
VERTEX
8
0
10
15.678178125
20
6.6722875
30
0
0
VERTEX
8
0
10
15.690890625000002
20
6.60020625
30
0
0
VERTEX
8
0
10
15.709834375000002
20
6.529509375
30
0
0
VERTEX
8
0
10
15.734865625000001
20
6.460728125
30
0
0
VERTEX
8
0
10
15.7658
20
6.39439375
30
0
0
VERTEX
8
0
10
15.802396875000001
20
6.331006250000001
30
0
0
VERTEX
8
0
10
15.844378125
20
6.271050000000001
30
0
0
VERTEX
8
0
10
15.891425
20
6.21498125
30
0
0
VERTEX
8
0
10
15.94318125
20
6.163225000000001
30
0
0
VERTEX
8
0
10
15.99925
20
6.116178125
30
0
0
VERTEX
8
0
10
16.05920625
20
6.074196875
30
0
0
VERTEX
8
0
10
16.12259375
20
6.0376
30
0
0
VERTEX
8
0
10
16.188928125
20
6.006665625
30
0
0
VERTEX
8
0
10
16.257709375
20
5.9816343750000005
30
0
0
VERTEX
8
0
10
16.32840625
20
5.9626906250000005
30
0
0
VERTEX
8
0
10
16.4004875
20
5.949978125
30
0
0
VERTEX
8
0
10
16.473403125
20
5.9436
30
0
0
VERTEX
8
0
10
16.546596875000002
20
5.9436
30
0
0
SEQEND
0
POLYLINE
66
1
8
16_copper
10
0.0
20
0.0
30
0.0
70
1
0
VERTEX
8
0
10
19.1595125
20
5.949978125
30
0
42
0.3639697834944294
0
VERTEX
8
0
10
19.8882
20
6.745203125000001
30
0
0
VERTEX
8
0
10
19.8882
20
8.494796875
30
0
42
0.9572914311583669
0
VERTEX
8
0
10
18.2118
20
8.494796875
30
0
0
VERTEX
8
0
10
18.2118
20
6.745203125000001
30
0
0
VERTEX
8
0
10
18.218178125
20
6.6722875
30
0
0
VERTEX
8
0
10
18.230890625
20
6.60020625
30
0
0
VERTEX
8
0
10
18.249834375000002
20
6.529509375
30
0
0
VERTEX
8
0
10
18.274865625
20
6.460728125
30
0
0
VERTEX
8
0
10
18.3058
20
6.39439375
30
0
0
VERTEX
8
0
10
18.342396875000002
20
6.331006250000001
30
0
0
VERTEX
8
0
10
18.384378125
20
6.271050000000001
30
0
0
VERTEX
8
0
10
18.431425
20
6.21498125
30
0
0
VERTEX
8
0
10
18.48318125
20
6.163225000000001
30
0
0
VERTEX
8
0
10
18.53925
20
6.116178125
30
0
0
VERTEX
8
0
10
18.59920625
20
6.074196875
30
0
0
VERTEX
8
0
10
18.66259375
20
6.0376
30
0
0
VERTEX
8
0
10
18.728928125
20
6.006665625
30
0
0
VERTEX
8
0
10
18.797709375
20
5.9816343750000005
30
0
0
VERTEX
8
0
10
18.86840625
20
5.9626906250000005
30
0
0
VERTEX
8
0
10
18.9404875
20
5.949978125
30
0
0
VERTEX
8
0
10
19.013403125
20
5.9436
30
0
0
VERTEX
8
0
10
19.086596875
20
5.9436
30
0
0
SEQEND
0
POLYLINE
66
1
8
16_copper
10
0.0
20
0.0
30
0.0
70
1
0
VERTEX
8
0
10
21.6995125
20
5.949978125
30
0
42
0.3639697834944294
0
VERTEX
8
0
10
22.4282
20
6.745203125000001
30
0
0
VERTEX
8
0
10
22.4282
20
8.494796875
30
0
42
0.9572914311583669
0
VERTEX
8
0
10
20.7518
20
8.494796875
30
0
0
VERTEX
8
0
10
20.7518
20
6.745203125000001
30
0
0
VERTEX
8
0
10
20.758178125
20
6.6722875
30
0
0
VERTEX
8
0
10
20.770890625
20
6.60020625
30
0
0
VERTEX
8
0
10
20.789834375
20
6.529509375
30
0
0
VERTEX
8
0
10
20.814865625
20
6.460728125
30
0
0
VERTEX
8
0
10
20.8458
20
6.39439375
30
0
0
VERTEX
8
0
10
20.882396875
20
6.331006250000001
30
0
0
VERTEX
8
0
10
20.924378125
20
6.271050000000001
30
0
0
VERTEX
8
0
10
20.971425
20
6.21498125
30
0
0
VERTEX
8
0
10
21.02318125
20
6.163225000000001
30
0
0
VERTEX
8
0
10
21.079250000000002
20
6.116178125
30
0
0
VERTEX
8
0
10
21.13920625
20
6.074196875
30
0
0
VERTEX
8
0
10
21.202593750000002
20
6.0376
30
0
0
VERTEX
8
0
10
21.268928125000002
20
6.006665625
30
0
0
VERTEX
8
0
10
21.337709375
20
5.9816343750000005
30
0
0
VERTEX
8
0
10
21.408406250000002
20
5.9626906250000005
30
0
0
VERTEX
8
0
10
21.480487500000002
20
5.949978125
30
0
0
VERTEX
8
0
10
21.553403125000003
20
5.9436
30
0
0
VERTEX
8
0
10
21.626596875
20
5.9436
30
0
0
SEQEND
0
POLYLINE
66
1
8
16_copper
10
0.0
20
0.0
30
0.0
70
1
0
VERTEX
8
0
10
24.2395125
20
5.949978125
30
0
42
0.3639697834944294
0
VERTEX
8
0
10
24.9682
20
6.745203125000001
30
0
0
VERTEX
8
0
10
24.9682
20
8.494796875
30
0
42
0.9572914311583669
0
VERTEX
8
0
10
23.291800000000002
20
8.494796875
30
0
0
VERTEX
8
0
10
23.291800000000002
20
6.745203125000001
30
0
0
VERTEX
8
0
10
23.298178125
20
6.6722875
30
0
0
VERTEX
8
0
10
23.310890625000003
20
6.60020625
30
0
0
VERTEX
8
0
10
23.329834375
20
6.529509375
30
0
0
VERTEX
8
0
10
23.354865625000002
20
6.460728125
30
0
0
VERTEX
8
0
10
23.3858
20
6.39439375
30
0
0
VERTEX
8
0
10
23.422396875
20
6.331006250000001
30
0
0
VERTEX
8
0
10
23.464378125
20
6.271050000000001
30
0
0
VERTEX
8
0
10
23.511425000000003
20
6.21498125
30
0
0
VERTEX
8
0
10
23.56318125
20
6.163225000000001
30
0
0
VERTEX
8
0
10
23.61925
20
6.116178125
30
0
0
VERTEX
8
0
10
23.67920625
20
6.074196875
30
0
0
VERTEX
8
0
10
23.74259375
20
6.0376
30
0
0
VERTEX
8
0
10
23.808928125
20
6.006665625
30
0
0
VERTEX
8
0
10
23.877709375000002
20
5.9816343750000005
30
0
0
VERTEX
8
0
10
23.94840625
20
5.9626906250000005
30
0
0
VERTEX
8
0
10
24.0204875
20
5.949978125
30
0
0
VERTEX
8
0
10
24.093403125000002
20
5.9436
30
0
0
VERTEX
8
0
10
24.166596875
20
5.9436
30
0
0
SEQEND
0
POLYLINE
66
1
8
16_copper
10
0.0
20
0.0
30
0.0
70
1
0
VERTEX
8
0
10
26.779512500000003
20
5.949978125
30
0
42
0.3639697834944294
0
VERTEX
8
0
10
27.508200000000002
20
6.745203125000001
30
0
0
VERTEX
8
0
10
27.508200000000002
20
8.494796875
30
0
42
0.9572914311583669
0
VERTEX
8
0
10
25.8318
20
8.494796875
30
0
0
VERTEX
8
0
10
25.8318
20
6.745203125000001
30
0
0
VERTEX
8
0
10
25.838178125000002
20
6.6722875
30
0
0
VERTEX
8
0
10
25.850890625
20
6.60020625
30
0
0
VERTEX
8
0
10
25.869834375
20
6.529509375
30
0
0
VERTEX
8
0
10
25.894865625
20
6.460728125
30
0
0
VERTEX
8
0
10
25.925800000000002
20
6.39439375
30
0
0
VERTEX
8
0
10
25.962396875
20
6.331006250000001
30
0
0
VERTEX
8
0
10
26.004378125000002
20
6.271050000000001
30
0
0
VERTEX
8
0
10
26.051425000000002
20
6.21498125
30
0
0
VERTEX
8
0
10
26.103181250000002
20
6.163225000000001
30
0
0
VERTEX
8
0
10
26.15925
20
6.116178125
30
0
0
VERTEX
8
0
10
26.219206250000003
20
6.074196875
30
0
0
VERTEX
8
0
10
26.28259375
20
6.0376
30
0
0
VERTEX
8
0
10
26.348928125
20
6.006665625
30
0
0
VERTEX
8
0
10
26.417709375
20
5.9816343750000005
30
0
0
VERTEX
8
0
10
26.48840625
20
5.9626906250000005
30
0
0
VERTEX
8
0
10
26.5604875
20
5.949978125
30
0
0
VERTEX
8
0
10
26.633403125
20
5.9436
30
0
0
VERTEX
8
0
10
26.706596875000002
20
5.9436
30
0
0
SEQEND
0
POLYLINE
66
1
8
16_copper
10
0.0
20
0.0
30
0.0
70
1
0
VERTEX
8
0
10
29.319512500000002
20
5.949978125
30
0
42
0.3639697834944294
0
VERTEX
8
0
10
30.0482
20
6.745203125000001
30
0
0
VERTEX
8
0
10
30.0482
20
8.494796875
30
0
42
0.9572914311583669
0
VERTEX
8
0
10
28.3718
20
8.494796875
30
0
0
VERTEX
8
0
10
28.3718
20
6.745203125000001
30
0
0
VERTEX
8
0
10
28.378178125
20
6.6722875
30
0
0
VERTEX
8
0
10
28.390890625
20
6.60020625
30
0
0
VERTEX
8
0
10
28.409834375000003
20
6.529509375
30
0
0
VERTEX
8
0
10
28.434865625
20
6.460728125
30
0
0
VERTEX
8
0
10
28.4658
20
6.39439375
30
0
0
VERTEX
8
0
10
28.502396875000002
20
6.331006250000001
30
0
0
VERTEX
8
0
10
28.544378125
20
6.271050000000001
30
0
0
VERTEX
8
0
10
28.591425
20
6.21498125
30
0
0
VERTEX
8
0
10
28.64318125
20
6.163225000000001
30
0
0
VERTEX
8
0
10
28.699250000000003
20
6.116178125
30
0
0
VERTEX
8
0
10
28.759206250000002
20
6.074196875
30
0
0
VERTEX
8
0
10
28.822593750000003
20
6.0376
30
0
0
VERTEX
8
0
10
28.888928125
20
6.006665625
30
0
0
VERTEX
8
0
10
28.957709375
20
5.9816343750000005
30
0
0
VERTEX
8
0
10
29.02840625
20
5.9626906250000005
30
0
0
VERTEX
8
0
10
29.1004875
20
5.949978125
30
0
0
VERTEX
8
0
10
29.173403125
20
5.9436
30
0
0
VERTEX
8
0
10
29.246596875
20
5.9436
30
0
0
SEQEND
0
POLYLINE
66
1
8
16_copper
10
0.0
20
0.0
30
0.0
70
1
0
VERTEX
8
0
10
44.559512500000004
20
5.949978125
30
0
42
0.3639697834944294
0
VERTEX
8
0
10
45.2882
20
6.745203125000001
30
0
0
VERTEX
8
0
10
45.2882
20
8.494796875
30
0
42
0.9572914311583669
0
VERTEX
8
0
10
43.6118
20
8.494796875
30
0
0
VERTEX
8
0
10
43.6118
20
6.745203125000001
30
0
0
VERTEX
8
0
10
43.618178125
20
6.6722875
30
0
0
VERTEX
8
0
10
43.630890625
20
6.60020625
30
0
0
VERTEX
8
0
10
43.649834375000005
20
6.529509375
30
0
0
VERTEX
8
0
10
43.674865625
20
6.460728125
30
0
0
VERTEX
8
0
10
43.7058
20
6.39439375
30
0
0
VERTEX
8
0
10
43.742396875000004
20
6.331006250000001
30
0
0
VERTEX
8
0
10
43.784378125
20
6.271050000000001
30
0
0
VERTEX
8
0
10
43.831425
20
6.21498125
30
0
0
VERTEX
8
0
10
43.88318125
20
6.163225000000001
30
0
0
VERTEX
8
0
10
43.93925
20
6.116178125
30
0
0
VERTEX
8
0
10
43.99920625
20
6.074196875
30
0
0
VERTEX
8
0
10
44.062593750000005
20
6.0376
30
0
0
VERTEX
8
0
10
44.128928125
20
6.006665625
30
0
0
VERTEX
8
0
10
44.197709375
20
5.9816343750000005
30
0
0
VERTEX
8
0
10
44.268406250000005
20
5.9626906250000005
30
0
0
VERTEX
8
0
10
44.3404875
20
5.949978125
30
0
0
VERTEX
8
0
10
44.413403125
20
5.9436
30
0
0
VERTEX
8
0
10
44.486596875000004
20
5.9436
30
0
0
SEQEND
0
POLYLINE
66
1
8
16_copper
10
0.0
20
0.0
30
0.0
70
1
0
VERTEX
8
0
10
47.0995125
20
5.949978125
30
0
42
0.3639697834944294
0
VERTEX
8
0
10
47.8282
20
6.745203125000001
30
0
0
VERTEX
8
0
10
47.8282
20
8.494796875
30
0
42
0.9572914311583669
0
VERTEX
8
0
10
46.1518
20
8.494796875
30
0
0
VERTEX
8
0
10
46.1518
20
6.745203125000001
30
0
0
VERTEX
8
0
10
46.158178125
20
6.6722875
30
0
0
VERTEX
8
0
10
46.170890625000006
20
6.60020625
30
0
0
VERTEX
8
0
10
46.189834375000004
20
6.529509375
30
0
0
VERTEX
8
0
10
46.214865625
20
6.460728125
30
0
0
VERTEX
8
0
10
46.2458
20
6.39439375
30
0
0
VERTEX
8
0
10
46.282396875
20
6.331006250000001
30
0
0
VERTEX
8
0
10
46.324378125
20
6.271050000000001
30
0
0
VERTEX
8
0
10
46.371425
20
6.21498125
30
0
0
VERTEX
8
0
10
46.42318125
20
6.163225000000001
30
0
0
VERTEX
8
0
10
46.47925
20
6.116178125
30
0
0
VERTEX
8
0
10
46.53920625
20
6.074196875
30
0
0
VERTEX
8
0
10
46.602593750000004
20
6.0376
30
0
0
VERTEX
8
0
10
46.668928125
20
6.006665625
30
0
0
VERTEX
8
0
10
46.737709375
20
5.9816343750000005
30
0
0
VERTEX
8
0
10
46.808406250000004
20
5.9626906250000005
30
0
0
VERTEX
8
0
10
46.8804875
20
5.949978125
30
0
0
VERTEX
8
0
10
46.953403125
20
5.9436
30
0
0
VERTEX
8
0
10
47.026596875
20
5.9436
30
0
0
SEQEND
0
POLYLINE
66
1
8
1_copper
10
0.0
20
0.0
30
0.0
70
1
0
VERTEX
8
0
10
44.559512500000004
20
33.889978125
30
0
42
0.3639697834944294
0
VERTEX
8
0
10
45.2882
20
34.685203125
30
0
0
VERTEX
8
0
10
45.2882
20
36.434796875
30
0
42
0.9572914311583669
0
VERTEX
8
0
10
43.6118
20
36.434796875
30
0
0
VERTEX
8
0
10
43.6118
20
34.685203125
30
0
0
VERTEX
8
0
10
43.618178125
20
34.6122875
30
0
0
VERTEX
8
0
10
43.630890625
20
34.540206250000004
30
0
0
VERTEX
8
0
10
43.649834375000005
20
34.469509375
30
0
0
VERTEX
8
0
10
43.674865625
20
34.400728125
30
0
0
VERTEX
8
0
10
43.7058
20
34.334393750000004
30
0
0
VERTEX
8
0
10
43.742396875000004
20
34.27100625
30
0
0
VERTEX
8
0
10
43.784378125
20
34.21105
30
0
0
VERTEX
8
0
10
43.831425
20
34.15498125
30
0
0
VERTEX
8
0
10
43.88318125
20
34.103225
30
0
0
VERTEX
8
0
10
43.93925
20
34.056178125
30
0
0
VERTEX
8
0
10
43.99920625
20
34.014196875
30
0
0
VERTEX
8
0
10
44.062593750000005
20
33.9776
30
0
0
VERTEX
8
0
10
44.128928125
20
33.946665625
30
0
0
VERTEX
8
0
10
44.197709375
20
33.921634375000004
30
0
0
VERTEX
8
0
10
44.268406250000005
20
33.902690625
30
0
0
VERTEX
8
0
10
44.3404875
20
33.889978125
30
0
0
VERTEX
8
0
10
44.413403125
20
33.8836
30
0
0
VERTEX
8
0
10
44.486596875000004
20
33.8836
30
0
0
SEQEND
0
POLYLINE
66
1
8
1_copper
10
0.0
20
0.0
30
0.0
70
1
0
VERTEX
8
0
10
24.2395125
20
33.889978125
30
0
42
0.3639697834944294
0
VERTEX
8
0
10
24.9682
20
34.685203125
30
0
0
VERTEX
8
0
10
24.9682
20
36.434796875
30
0
42
0.9572914311583669
0
VERTEX
8
0
10
23.291800000000002
20
36.434796875
30
0
0
VERTEX
8
0
10
23.291800000000002
20
34.685203125
30
0
0
VERTEX
8
0
10
23.298178125
20
34.6122875
30
0
0
VERTEX
8
0
10
23.310890625000003
20
34.540206250000004
30
0
0
VERTEX
8
0
10
23.329834375
20
34.469509375
30
0
0
VERTEX
8
0
10
23.354865625000002
20
34.400728125
30
0
0
VERTEX
8
0
10
23.3858
20
34.334393750000004
30
0
0
VERTEX
8
0
10
23.422396875
20
34.27100625
30
0
0
VERTEX
8
0
10
23.464378125
20
34.21105
30
0
0
VERTEX
8
0
10
23.511425000000003
20
34.15498125
30
0
0
VERTEX
8
0
10
23.56318125
20
34.103225
30
0
0
VERTEX
8
0
10
23.61925
20
34.056178125
30
0
0
VERTEX
8
0
10
23.67920625
20
34.014196875
30
0
0
VERTEX
8
0
10
23.74259375
20
33.9776
30
0
0
VERTEX
8
0
10
23.808928125
20
33.946665625
30
0
0
VERTEX
8
0
10
23.877709375000002
20
33.921634375000004
30
0
0
VERTEX
8
0
10
23.94840625
20
33.902690625
30
0
0
VERTEX
8
0
10
24.0204875
20
33.889978125
30
0
0
VERTEX
8
0
10
24.093403125000002
20
33.8836
30
0
0
VERTEX
8
0
10
24.166596875
20
33.8836
30
0
0
SEQEND
0
POLYLINE
66
1
8
1_copper
10
0.0
20
0.0
30
0.0
70
1
0
VERTEX
8
0
10
14.0795125
20
5.949978125
30
0
42
0.3639697834944294
0
VERTEX
8
0
10
14.808200000000001
20
6.745203125000001
30
0
0
VERTEX
8
0
10
14.808200000000001
20
8.494796875
30
0
42
0.9572914311583669
0
VERTEX
8
0
10
13.1318
20
8.494796875
30
0
0
VERTEX
8
0
10
13.1318
20
6.745203125000001
30
0
0
VERTEX
8
0
10
13.138178125000001
20
6.6722875
30
0
0
VERTEX
8
0
10
13.150890625
20
6.60020625
30
0
0
VERTEX
8
0
10
13.169834375
20
6.529509375
30
0
0
VERTEX
8
0
10
13.194865625
20
6.460728125
30
0
0
VERTEX
8
0
10
13.225800000000001
20
6.39439375
30
0
0
VERTEX
8
0
10
13.262396875
20
6.331006250000001
30
0
0
VERTEX
8
0
10
13.304378125000001
20
6.271050000000001
30
0
0
VERTEX
8
0
10
13.351425
20
6.21498125
30
0
0
VERTEX
8
0
10
13.403181250000001
20
6.163225000000001
30
0
0
VERTEX
8
0
10
13.45925
20
6.116178125
30
0
0
VERTEX
8
0
10
13.51920625
20
6.074196875
30
0
0
VERTEX
8
0
10
13.582593750000001
20
6.0376
30
0
0
VERTEX
8
0
10
13.648928125000001
20
6.006665625
30
0
0
VERTEX
8
0
10
13.717709375
20
5.9816343750000005
30
0
0
VERTEX
8
0
10
13.788406250000001
20
5.9626906250000005
30
0
0
VERTEX
8
0
10
13.860487500000001
20
5.949978125
30
0
0
VERTEX
8
0
10
13.933403125
20
5.9436
30
0
0
VERTEX
8
0
10
14.006596875000001
20
5.9436
30
0
0
SEQEND
0
POLYLINE
66
1
8
1_copper
10
0.0
20
0.0
30
0.0
70
1
0
VERTEX
8
0
10
31.8595125
20
5.949978125
30
0
42
0.3639697834944294
0
VERTEX
8
0
10
32.5882
20
6.745203125000001
30
0
0
VERTEX
8
0
10
32.5882
20
8.494796875
30
0
42
0.9572914311583669
0
VERTEX
8
0
10
30.911800000000003
20
8.494796875
30
0
0
VERTEX
8
0
10
30.911800000000003
20
6.745203125000001
30
0
0
VERTEX
8
0
10
30.918178125
20
6.6722875
30
0
0
VERTEX
8
0
10
30.930890625
20
6.60020625
30
0
0
VERTEX
8
0
10
30.949834375000002
20
6.529509375
30
0
0
VERTEX
8
0
10
30.974865625000003
20
6.460728125
30
0
0
VERTEX
8
0
10
31.0058
20
6.39439375
30
0
0
VERTEX
8
0
10
31.042396875
20
6.331006250000001
30
0
0
VERTEX
8
0
10
31.084378125
20
6.271050000000001
30
0
0
VERTEX
8
0
10
31.131425
20
6.21498125
30
0
0
VERTEX
8
0
10
31.18318125
20
6.163225000000001
30
0
0
VERTEX
8
0
10
31.239250000000002
20
6.116178125
30
0
0
VERTEX
8
0
10
31.29920625
20
6.074196875
30
0
0
VERTEX
8
0
10
31.362593750000002
20
6.0376
30
0
0
VERTEX
8
0
10
31.428928125000002
20
6.006665625
30
0
0
VERTEX
8
0
10
31.497709375000003
20
5.9816343750000005
30
0
0
VERTEX
8
0
10
31.568406250000002
20
5.9626906250000005
30
0
0
VERTEX
8
0
10
31.640487500000003
20
5.949978125
30
0
0
VERTEX
8
0
10
31.713403125000003
20
5.9436
30
0
0
VERTEX
8
0
10
31.786596875
20
5.9436
30
0
0
SEQEND
0
POLYLINE
66
1
8
16_copper
10
0.0
20
0.0
30
0.0
70
1
0
VERTEX
8
0
10
24.850384375
20
34.293140625
30
0
42
0.12391160580239523
0
VERTEX
8
0
10
24.9682
20
34.685203125
30
0
0
VERTEX
8
0
10
24.9682
20
36.434796875
30
0
42
0.9572914311583669
0
VERTEX
8
0
10
23.291800000000002
20
36.434796875
30
0
0
VERTEX
8
0
10
23.291800000000002
20
34.685203125
30
0
42
0.611320963868007
0
VERTEX
8
0
10
24.649203125
20
34.063271875
30
0
0
VERTEX
8
0
10
25.901837500000003
20
32.8106375
30
0
42
0.198912367379658
0
VERTEX
8
0
10
26.009600000000002
20
32.766
30
0
0
VERTEX
8
0
10
31.953200000000002
20
32.766
30
0
0
VERTEX
8
0
10
31.953200000000002
20
9.27151875
30
0
42
0.4744479763643072
0
VERTEX
8
0
10
30.911800000000003
20
8.494796875
30
0
0
VERTEX
8
0
10
30.911800000000003
20
6.745203125000001
30
0
42
0.1012348693257388
0
VERTEX
8
0
10
30.99418125
20
6.41930625
30
0
0
VERTEX
8
0
10
30.010475000000003
20
5.4356
30
0
0
VERTEX
8
0
10
15.912725
20
5.4356
30
0
0
VERTEX
8
0
10
14.780446875
20
6.567878125
30
0
42
0.053660394840170426
0
VERTEX
8
0
10
14.808200000000001
20
6.745203125000001
30
0
0
VERTEX
8
0
10
14.808200000000001
20
8.494796875
30
0
42
0.9572914311583669
0
VERTEX
8
0
10
13.1318
20
8.494796875
30
0
0
VERTEX
8
0
10
13.1318
20
6.745203125000001
30
0
42
0.7035915734526025
0
VERTEX
8
0
10
14.6399875
20
6.2772875
30
0
0
VERTEX
8
0
10
15.7418375
20
5.1754375
30
0
42
0.198912367379658
0
VERTEX
8
0
10
15.8496
20
5.1308
30
0
0
VERTEX
8
0
10
30.073600000000003
20
5.1308
30
0
42
0.198912367379658
0
VERTEX
8
0
10
30.181362500000002
20
5.1754375
30
0
0
VERTEX
8
0
10
31.176165625000003
20
6.170240625
30
0
42
0.6412319884982366
0
VERTEX
8
0
10
32.5882
20
6.745203125000001
30
0
0
VERTEX
8
0
10
32.5882
20
8.494796875
30
0
42
0.22274329249454494
0
VERTEX
8
0
10
32.258
20
9.125746875
30
0
0
VERTEX
8
0
10
32.258
20
32.766
30
0
0
VERTEX
8
0
10
42.2656
20
32.766
30
0
42
0.198912367379658
0
VERTEX
8
0
10
42.3733625
20
32.8106375
30
0
0
VERTEX
8
0
10
43.780012500000005
20
34.217287500000005
30
0
42
0.7035915734526025
0
VERTEX
8
0
10
45.2882
20
34.685203125
30
0
0
VERTEX
8
0
10
45.2882
20
36.434796875
30
0
42
0.9572914311583669
0
VERTEX
8
0
10
43.6118
20
36.434796875
30
0
0
VERTEX
8
0
10
43.6118
20
34.685203125
30
0
42
0.053660394840170426
0
VERTEX
8
0
10
43.639553125
20
34.507878125000005
30
0
0
VERTEX
8
0
10
42.202475
20
33.0708
30
0
0
VERTEX
8
0
10
26.072725000000002
20
33.0708
30
0
0
SEQEND
0
POLYLINE
66
1
8
1_copper
10
0.0
20
0.0
30
0.0
70
1
0
VERTEX
8
0
10
21.6995125
20
33.889978125
30
0
42
0.3639697834944294
0
VERTEX
8
0
10
22.4282
20
34.685203125
30
0
0
VERTEX
8
0
10
22.4282
20
36.434796875
30
0
42
0.9572914311583669
0
VERTEX
8
0
10
20.7518
20
36.434796875
30
0
0
VERTEX
8
0
10
20.7518
20
34.685203125
30
0
0
VERTEX
8
0
10
20.758178125
20
34.6122875
30
0
0
VERTEX
8
0
10
20.770890625
20
34.540206250000004
30
0
0
VERTEX
8
0
10
20.789834375
20
34.469509375
30
0
0
VERTEX
8
0
10
20.814865625
20
34.400728125
30
0
0
VERTEX
8
0
10
20.8458
20
34.334393750000004
30
0
0
VERTEX
8
0
10
20.882396875
20
34.27100625
30
0
0
VERTEX
8
0
10
20.924378125
20
34.21105
30
0
0
VERTEX
8
0
10
20.971425
20
34.15498125
30
0
0
VERTEX
8
0
10
21.02318125
20
34.103225
30
0
0
VERTEX
8
0
10
21.079250000000002
20
34.056178125
30
0
0
VERTEX
8
0
10
21.13920625
20
34.014196875
30
0
0
VERTEX
8
0
10
21.202593750000002
20
33.9776
30
0
0
VERTEX
8
0
10
21.268928125000002
20
33.946665625
30
0
0
VERTEX
8
0
10
21.337709375
20
33.921634375000004
30
0
0
VERTEX
8
0
10
21.408406250000002
20
33.902690625
30
0
0
VERTEX
8
0
10
21.480487500000002
20
33.889978125
30
0
0
VERTEX
8
0
10
21.553403125000003
20
33.8836
30
0
0
VERTEX
8
0
10
21.626596875
20
33.8836
30
0
0
SEQEND
0
POLYLINE
66
1
8
1_copper
10
0.0
20
0.0
30
0.0
70
1
0
VERTEX
8
0
10
11.5395125
20
5.949978125
30
0
42
0.3639697834944294
0
VERTEX
8
0
10
12.2682
20
6.745203125000001
30
0
0
VERTEX
8
0
10
12.2682
20
8.494796875
30
0
42
0.9572914311583669
0
VERTEX
8
0
10
10.591800000000001
20
8.494796875
30
0
0
VERTEX
8
0
10
10.591800000000001
20
6.745203125000001
30
0
0
VERTEX
8
0
10
10.598178125
20
6.6722875
30
0
0
VERTEX
8
0
10
10.610890625
20
6.60020625
30
0
0
VERTEX
8
0
10
10.629834375
20
6.529509375
30
0
0
VERTEX
8
0
10
10.654865625000001
20
6.460728125
30
0
0
VERTEX
8
0
10
10.6858
20
6.39439375
30
0
0
VERTEX
8
0
10
10.722396875000001
20
6.331006250000001
30
0
0
VERTEX
8
0
10
10.764378125
20
6.271050000000001
30
0
0
VERTEX
8
0
10
10.811425
20
6.21498125
30
0
0
VERTEX
8
0
10
10.86318125
20
6.163225000000001
30
0
0
VERTEX
8
0
10
10.91925
20
6.116178125
30
0
0
VERTEX
8
0
10
10.97920625
20
6.074196875
30
0
0
VERTEX
8
0
10
11.04259375
20
6.0376
30
0
0
VERTEX
8
0
10
11.108928125
20
6.006665625
30
0
0
VERTEX
8
0
10
11.177709375000001
20
5.9816343750000005
30
0
0
VERTEX
8
0
10
11.24840625
20
5.9626906250000005
30
0
0
VERTEX
8
0
10
11.3204875
20
5.949978125
30
0
0
VERTEX
8
0
10
11.393403125
20
5.9436
30
0
0
VERTEX
8
0
10
11.466596875
20
5.9436
30
0
0
SEQEND
0
POLYLINE
66
1
8
1_copper
10
0.0
20
0.0
30
0.0
70
1
0
VERTEX
8
0
10
34.3995125
20
5.949978125
30
0
42
0.3639697834944294
0
VERTEX
8
0
10
35.1282
20
6.745203125000001
30
0
0
VERTEX
8
0
10
35.1282
20
8.494796875
30
0
42
0.9572914311583669
0
VERTEX
8
0
10
33.4518
20
8.494796875
30
0
0
VERTEX
8
0
10
33.4518
20
6.745203125000001
30
0
0
VERTEX
8
0
10
33.458178125
20
6.6722875
30
0
0
VERTEX
8
0
10
33.470890625
20
6.60020625
30
0
0
VERTEX
8
0
10
33.489834375
20
6.529509375
30
0
0
VERTEX
8
0
10
33.514865625
20
6.460728125
30
0
0
VERTEX
8
0
10
33.5458
20
6.39439375
30
0
0
VERTEX
8
0
10
33.582396875
20
6.331006250000001
30
0
0
VERTEX
8
0
10
33.624378125
20
6.271050000000001
30
0
0
VERTEX
8
0
10
33.671425
20
6.21498125
30
0
0
VERTEX
8
0
10
33.72318125
20
6.163225000000001
30
0
0
VERTEX
8
0
10
33.779250000000005
20
6.116178125
30
0
0
VERTEX
8
0
10
33.839206250000004
20
6.074196875
30
0
0
VERTEX
8
0
10
33.90259375
20
6.0376
30
0
0
VERTEX
8
0
10
33.968928125000005
20
6.006665625
30
0
0
VERTEX
8
0
10
34.037709375
20
5.9816343750000005
30
0
0
VERTEX
8
0
10
34.10840625
20
5.9626906250000005
30
0
0
VERTEX
8
0
10
34.1804875
20
5.949978125
30
0
0
VERTEX
8
0
10
34.253403125
20
5.9436
30
0
0
VERTEX
8
0
10
34.326596875
20
5.9436
30
0
0
SEQEND
0
POLYLINE
66
1
8
16_copper
10
0.0
20
0.0
30
0.0
70
1
0
VERTEX
8
0
10
31.704896875000003
20
4.318578125
30
0
42
0.18918278447443876
0
VERTEX
8
0
10
31.8069625
20
4.3626375
30
0
0
VERTEX
8
0
10
33.665896875
20
6.221571875
30
0
42
0.671890704666655
0
VERTEX
8
0
10
35.1282
20
6.745203125000001
30
0
0
VERTEX
8
0
10
35.1282
20
8.494796875
30
0
42
0.9572914311583669
0
VERTEX
8
0
10
33.4518
20
8.494796875
30
0
0
VERTEX
8
0
10
33.4518
20
6.745203125000001
30
0
42
0.0779216637457469
0
VERTEX
8
0
10
33.5039625
20
6.4906875
30
0
0
VERTEX
8
0
10
31.636075
20
4.6228
30
0
0
VERTEX
8
0
10
13.880725
20
4.6228
30
0
0
VERTEX
8
0
10
12.150384375
20
6.353140625
30
0
42
0.12391160580239523
0
VERTEX
8
0
10
12.2682
20
6.745203125000001
30
0
0
VERTEX
8
0
10
12.2682
20
8.494796875
30
0
42
0.0779216637457469
0
VERTEX
8
0
10
12.2160375
20
8.7493125
30
0
0
VERTEX
8
0
10
21.6469625
20
18.1802375
30
0
42
0.198912367379658
0
VERTEX
8
0
10
21.6916
20
18.288
30
0
0
VERTEX
8
0
10
21.6916
20
33.8892875
30
0
42
0.3666507587637374
0
VERTEX
8
0
10
22.4282
20
34.685203125
30
0
0
VERTEX
8
0
10
22.4282
20
36.434796875
30
0
42
0.9572914311583669
0
VERTEX
8
0
10
20.7518
20
36.434796875
30
0
0
VERTEX
8
0
10
20.7518
20
34.685203125
30
0
42
0.3320371621697353
0
VERTEX
8
0
10
21.3868
20
33.90848125
30
0
0
VERTEX
8
0
10
21.3868
20
18.351125
30
0
0
VERTEX
8
0
10
12.054103125000001
20
9.018428125
30
0
42
0.671890704666655
0
VERTEX
8
0
10
10.591800000000001
20
8.494796875
30
0
0
VERTEX
8
0
10
10.591800000000001
20
6.745203125000001
30
0
42
0.611320963868007
0
VERTEX
8
0
10
11.949203125
20
6.123271875
30
0
0
VERTEX
8
0
10
13.7098375
20
4.3626375
30
0
42
0.198912367379658
0
VERTEX
8
0
10
13.8176
20
4.3180000000000005
30
0
0
VERTEX
8
0
10
31.6992
20
4.3180000000000005
30
0
0
SEQEND
0
POLYLINE
66
1
8
1_copper
10
0.0
20
0.0
30
0.0
70
1
0
VERTEX
8
0
10
24.994768750000002
20
47.5132625
30
0
42
0.9063473624237881
0
VERTEX
8
0
10
24.921040625
20
49.014
30
0
0
VERTEX
8
0
10
23.338959375
20
49.014
30
0
42
0.9520804327636221
0
VERTEX
8
0
10
23.338959375
20
47.506
30
0
0
VERTEX
8
0
10
24.921040625
20
47.506
30
0
0
SEQEND
0
POLYLINE
66
1
8
1_copper
10
0.0
20
0.0
30
0.0
70
1
0
VERTEX
8
0
10
36.42476875
20
47.5132625
30
0
42
0.9063473624237881
0
VERTEX
8
0
10
36.351040625
20
49.014
30
0
0
VERTEX
8
0
10
34.768959375
20
49.014
30
0
42
0.9520804327636221
0
VERTEX
8
0
10
34.768959375
20
47.506
30
0
0
VERTEX
8
0
10
36.351040625
20
47.506
30
0
0
SEQEND
0
POLYLINE
66
1
8
1_copper
10
0.0
20
0.0
30
0.0
70
1
0
VERTEX
8
0
10
11.5395125
20
33.889978125
30
0
42
0.3639697834944294
0
VERTEX
8
0
10
12.2682
20
34.685203125
30
0
0
VERTEX
8
0
10
12.2682
20
36.434796875
30
0
42
0.9572914311583669
0
VERTEX
8
0
10
10.591800000000001
20
36.434796875
30
0
0
VERTEX
8
0
10
10.591800000000001
20
34.685203125
30
0
0
VERTEX
8
0
10
10.598178125
20
34.6122875
30
0
0
VERTEX
8
0
10
10.610890625
20
34.540206250000004
30
0
0
VERTEX
8
0
10
10.629834375
20
34.469509375
30
0
0
VERTEX
8
0
10
10.654865625000001
20
34.400728125
30
0
0
VERTEX
8
0
10
10.6858
20
34.334393750000004
30
0
0
VERTEX
8
0
10
10.722396875000001
20
34.27100625
30
0
0
VERTEX
8
0
10
10.764378125
20
34.21105
30
0
0
VERTEX
8
0
10
10.811425
20
34.15498125
30
0
0
VERTEX
8
0
10
10.86318125
20
34.103225
30
0
0
VERTEX
8
0
10
10.91925
20
34.056178125
30
0
0
VERTEX
8
0
10
10.97920625
20
34.014196875
30
0
0
VERTEX
8
0
10
11.04259375
20
33.9776
30
0
0
VERTEX
8
0
10
11.108928125
20
33.946665625
30
0
0
VERTEX
8
0
10
11.177709375000001
20
33.921634375000004
30
0
0
VERTEX
8
0
10
11.24840625
20
33.902690625
30
0
0
VERTEX
8
0
10
11.3204875
20
33.889978125
30
0
0
VERTEX
8
0
10
11.393403125
20
33.8836
30
0
0
VERTEX
8
0
10
11.466596875
20
33.8836
30
0
0
SEQEND
0
POLYLINE
66
1
8
16_copper
10
0.0
20
0.0
30
0.0
70
1
0
VERTEX
8
0
10
11.5395125
20
33.889978125
30
0
42
0.3639697834944294
0
VERTEX
8
0
10
12.2682
20
34.685203125
30
0
0
VERTEX
8
0
10
12.2682
20
36.434796875
30
0
42
0.1012348693257388
0
VERTEX
8
0
10
12.185818750000001
20
36.76069375
30
0
0
VERTEX
8
0
10
23.020300000000002
20
47.595175000000005
30
0
42
0.110999973547956
0
VERTEX
8
0
10
23.338959375
20
47.506
30
0
0
VERTEX
8
0
10
24.921040625
20
47.506
30
0
42
0.3804947637737094
0
VERTEX
8
0
10
25.63664375
20
48.2092
30
0
0
VERTEX
8
0
10
34.05335625
20
48.2092
30
0
42
0.3804947637737094
0
VERTEX
8
0
10
34.768959375
20
47.506
30
0
0
VERTEX
8
0
10
36.351040625
20
47.506
30
0
42
0.9520804327636221
0
VERTEX
8
0
10
36.351040625
20
49.014
30
0
0
VERTEX
8
0
10
34.768959375
20
49.014
30
0
42
0.3034683650038422
0
VERTEX
8
0
10
34.095121875000004
20
48.514
30
0
0
VERTEX
8
0
10
25.594878125
20
48.514
30
0
42
0.3034683650038422
0
VERTEX
8
0
10
24.921040625
20
49.014
30
0
0
VERTEX
8
0
10
23.338959375
20
49.014
30
0
42
0.6105390806959956
0
VERTEX
8
0
10
22.785303125000002
20
47.791228125
30
0
0
VERTEX
8
0
10
12.003834375
20
37.009759375
30
0
42
0.6412319884982366
0
VERTEX
8
0
10
10.591800000000001
20
36.434796875
30
0
0
VERTEX
8
0
10
10.591800000000001
20
34.685203125
30
0
0
VERTEX
8
0
10
10.598178125
20
34.6122875
30
0
0
VERTEX
8
0
10
10.610890625
20
34.540206250000004
30
0
0
VERTEX
8
0
10
10.629834375
20
34.469509375
30
0
0
VERTEX
8
0
10
10.654865625000001
20
34.400728125
30
0
0
VERTEX
8
0
10
10.6858
20
34.334393750000004
30
0
0
VERTEX
8
0
10
10.722396875000001
20
34.27100625
30
0
0
VERTEX
8
0
10
10.764378125
20
34.21105
30
0
0
VERTEX
8
0
10
10.811425
20
34.15498125
30
0
0
VERTEX
8
0
10
10.86318125
20
34.103225
30
0
0
VERTEX
8
0
10
10.91925
20
34.056178125
30
0
0
VERTEX
8
0
10
10.97920625
20
34.014196875
30
0
0
VERTEX
8
0
10
11.04259375
20
33.9776
30
0
0
VERTEX
8
0
10
11.108928125
20
33.946665625
30
0
0
VERTEX
8
0
10
11.177709375000001
20
33.921634375000004
30
0
0
VERTEX
8
0
10
11.24840625
20
33.902690625
30
0
0
VERTEX
8
0
10
11.3204875
20
33.889978125
30
0
0
VERTEX
8
0
10
11.393403125
20
33.8836
30
0
0
VERTEX
8
0
10
11.466596875
20
33.8836
30
0
0
SEQEND
0
POLYLINE
66
1
8
1_copper
10
0.0
20
0.0
30
0.0
70
1
0
VERTEX
8
0
10
46.58476875
20
44.973262500000004
30
0
42
0.9063473624237881
0
VERTEX
8
0
10
46.511040625
20
46.474000000000004
30
0
0
VERTEX
8
0
10
44.928959375000005
20
46.474000000000004
30
0
42
0.9520804327636221
0
VERTEX
8
0
10
44.928959375000005
20
44.966
30
0
0
VERTEX
8
0
10
46.511040625
20
44.966
30
0
0
SEQEND
0
POLYLINE
66
1
8
1_copper
10
0.0
20
0.0
30
0.0
70
1
0
VERTEX
8
0
10
24.994768750000002
20
44.973262500000004
30
0
42
0.9063473624237881
0
VERTEX
8
0
10
24.921040625
20
46.474000000000004
30
0
0
VERTEX
8
0
10
23.338959375
20
46.474000000000004
30
0
42
0.9520804327636221
0
VERTEX
8
0
10
23.338959375
20
44.966
30
0
0
VERTEX
8
0
10
24.921040625
20
44.966
30
0
0
SEQEND
0
POLYLINE
66
1
8
1_copper
10
0.0
20
0.0
30
0.0
70
1
0
VERTEX
8
0
10
36.42476875
20
44.973262500000004
30
0
42
0.9063473624237881
0
VERTEX
8
0
10
36.351040625
20
46.474000000000004
30
0
0
VERTEX
8
0
10
34.768959375
20
46.474000000000004
30
0
42
0.9520804327636221
0
VERTEX
8
0
10
34.768959375
20
44.966
30
0
0
VERTEX
8
0
10
36.351040625
20
44.966
30
0
0
SEQEND
0
POLYLINE
66
1
8
1_copper
10
0.0
20
0.0
30
0.0
70
1
0
VERTEX
8
0
10
14.0795125
20
33.889978125
30
0
42
0.3639697834944294
0
VERTEX
8
0
10
14.808200000000001
20
34.685203125
30
0
0
VERTEX
8
0
10
14.808200000000001
20
36.434796875
30
0
42
0.9572914311583669
0
VERTEX
8
0
10
13.1318
20
36.434796875
30
0
0
VERTEX
8
0
10
13.1318
20
34.685203125
30
0
0
VERTEX
8
0
10
13.138178125000001
20
34.6122875
30
0
0
VERTEX
8
0
10
13.150890625
20
34.540206250000004
30
0
0
VERTEX
8
0
10
13.169834375
20
34.469509375
30
0
0
VERTEX
8
0
10
13.194865625
20
34.400728125
30
0
0
VERTEX
8
0
10
13.225800000000001
20
34.334393750000004
30
0
0
VERTEX
8
0
10
13.262396875
20
34.27100625
30
0
0
VERTEX
8
0
10
13.304378125000001
20
34.21105
30
0
0
VERTEX
8
0
10
13.351425
20
34.15498125
30
0
0
VERTEX
8
0
10
13.403181250000001
20
34.103225
30
0
0
VERTEX
8
0
10
13.45925
20
34.056178125
30
0
0
VERTEX
8
0
10
13.51920625
20
34.014196875
30
0
0
VERTEX
8
0
10
13.582593750000001
20
33.9776
30
0
0
VERTEX
8
0
10
13.648928125000001
20
33.946665625
30
0
0
VERTEX
8
0
10
13.717709375
20
33.921634375000004
30
0
0
VERTEX
8
0
10
13.788406250000001
20
33.902690625
30
0
0
VERTEX
8
0
10
13.860487500000001
20
33.889978125
30
0
0
VERTEX
8
0
10
13.933403125
20
33.8836
30
0
0
VERTEX
8
0
10
14.006596875000001
20
33.8836
30
0
0
SEQEND
0
POLYLINE
66
1
8
16_copper
10
0.0
20
0.0
30
0.0
70
1
0
VERTEX
8
0
10
14.0795125
20
33.889978125
30
0
42
0.3639697834944294
0
VERTEX
8
0
10
14.808200000000001
20
34.685203125
30
0
0
VERTEX
8
0
10
14.808200000000001
20
36.434796875
30
0
42
0.12391160580239523
0
VERTEX
8
0
10
14.690384375
20
36.826859375000005
30
0
0
VERTEX
8
0
10
22.956796875000002
20
45.093271875
30
0
42
0.1359392592949678
0
VERTEX
8
0
10
23.338959375
20
44.966
30
0
0
VERTEX
8
0
10
24.921040625
20
44.966
30
0
42
0.419585827617533
0
VERTEX
8
0
10
25.63664375
20
45.7708
30
0
0
VERTEX
8
0
10
34.05335625
20
45.7708
30
0
42
0.419585827617533
0
VERTEX
8
0
10
34.768959375
20
44.966
30
0
0
VERTEX
8
0
10
36.351040625
20
44.966
30
0
42
0.419585827617533
0
VERTEX
8
0
10
37.066643750000004
20
45.7708
30
0
0
VERTEX
8
0
10
44.213356250000004
20
45.7708
30
0
42
0.419585827617533
0
VERTEX
8
0
10
44.928959375000005
20
44.966
30
0
0
VERTEX
8
0
10
46.511040625
20
44.966
30
0
42
0.9520804327636221
0
VERTEX
8
0
10
46.511040625
20
46.474000000000004
30
0
0
VERTEX
8
0
10
44.928959375000005
20
46.474000000000004
30
0
42
0.26350271064865594
0
VERTEX
8
0
10
44.301121875
20
46.0756
30
0
0
VERTEX
8
0
10
36.978878125
20
46.0756
30
0
42
0.26350271064865594
0
VERTEX
8
0
10
36.351040625
20
46.474000000000004
30
0
0
VERTEX
8
0
10
34.768959375
20
46.474000000000004
30
0
42
0.26350271064865594
0
VERTEX
8
0
10
34.141121875
20
46.0756
30
0
0
VERTEX
8
0
10
25.548878125
20
46.0756
30
0
42
0.26350271064865594
0
VERTEX
8
0
10
24.921040625
20
46.474000000000004
30
0
0
VERTEX
8
0
10
23.338959375
20
46.474000000000004
30
0
42
0.5778659673806269
0
VERTEX
8
0
10
22.742865625
20
45.310390625000004
30
0
0
VERTEX
8
0
10
14.489203125000001
20
37.056728125
30
0
42
0.611320963868007
0
VERTEX
8
0
10
13.1318
20
36.434796875
30
0
0
VERTEX
8
0
10
13.1318
20
34.685203125
30
0
0
VERTEX
8
0
10
13.138178125000001
20
34.6122875
30
0
0
VERTEX
8
0
10
13.150890625
20
34.540206250000004
30
0
0
VERTEX
8
0
10
13.169834375
20
34.469509375
30
0
0
VERTEX
8
0
10
13.194865625
20
34.400728125
30
0
0
VERTEX
8
0
10
13.225800000000001
20
34.334393750000004
30
0
0
VERTEX
8
0
10
13.262396875
20
34.27100625
30
0
0
VERTEX
8
0
10
13.304378125000001
20
34.21105
30
0
0
VERTEX
8
0
10
13.351425
20
34.15498125
30
0
0
VERTEX
8
0
10
13.403181250000001
20
34.103225
30
0
0
VERTEX
8
0
10
13.45925
20
34.056178125
30
0
0
VERTEX
8
0
10
13.51920625
20
34.014196875
30
0
0
VERTEX
8
0
10
13.582593750000001
20
33.9776
30
0
0
VERTEX
8
0
10
13.648928125000001
20
33.946665625
30
0
0
VERTEX
8
0
10
13.717709375
20
33.921634375000004
30
0
0
VERTEX
8
0
10
13.788406250000001
20
33.902690625
30
0
0
VERTEX
8
0
10
13.860487500000001
20
33.889978125
30
0
0
VERTEX
8
0
10
13.933403125
20
33.8836
30
0
0
VERTEX
8
0
10
14.006596875000001
20
33.8836
30
0
0
SEQEND
0
POLYLINE
66
1
8
1_copper
10
0.0
20
0.0
30
0.0
70
1
0
VERTEX
8
0
10
24.994768750000002
20
42.433262500000005
30
0
42
0.9063473624237881
0
VERTEX
8
0
10
24.921040625
20
43.934000000000005
30
0
0
VERTEX
8
0
10
23.338959375
20
43.934000000000005
30
0
42
0.9520804327636221
0
VERTEX
8
0
10
23.338959375
20
42.426
30
0
0
VERTEX
8
0
10
24.921040625
20
42.426
30
0
0
SEQEND
0
POLYLINE
66
1
8
1_copper
10
0.0
20
0.0
30
0.0
70
1
0
VERTEX
8
0
10
42.019512500000005
20
5.949978125
30
0
42
0.3639697834944294
0
VERTEX
8
0
10
42.748200000000004
20
6.745203125000001
30
0
0
VERTEX
8
0
10
42.748200000000004
20
8.494796875
30
0
42
0.9572914311583669
0
VERTEX
8
0
10
41.0718
20
8.494796875
30
0
0
VERTEX
8
0
10
41.0718
20
6.745203125000001
30
0
0
VERTEX
8
0
10
41.078178125
20
6.6722875
30
0
0
VERTEX
8
0
10
41.090890625
20
6.60020625
30
0
0
VERTEX
8
0
10
41.109834375000005
20
6.529509375
30
0
0
VERTEX
8
0
10
41.134865625
20
6.460728125
30
0
0
VERTEX
8
0
10
41.165800000000004
20
6.39439375
30
0
0
VERTEX
8
0
10
41.202396875000005
20
6.331006250000001
30
0
0
VERTEX
8
0
10
41.244378125000004
20
6.271050000000001
30
0
0
VERTEX
8
0
10
41.291425000000004
20
6.21498125
30
0
0
VERTEX
8
0
10
41.34318125
20
6.163225000000001
30
0
0
VERTEX
8
0
10
41.39925
20
6.116178125
30
0
0
VERTEX
8
0
10
41.45920625
20
6.074196875
30
0
0
VERTEX
8
0
10
41.52259375
20
6.0376
30
0
0
VERTEX
8
0
10
41.588928125
20
6.006665625
30
0
0
VERTEX
8
0
10
41.657709375
20
5.9816343750000005
30
0
0
VERTEX
8
0
10
41.72840625
20
5.9626906250000005
30
0
0
VERTEX
8
0
10
41.8004875
20
5.949978125
30
0
0
VERTEX
8
0
10
41.873403125
20
5.9436
30
0
0
VERTEX
8
0
10
41.946596875000004
20
5.9436
30
0
0
SEQEND
0
POLYLINE
66
1
8
16_copper
10
0.0
20
0.0
30
0.0
70
1
0
VERTEX
8
0
10
42.019512500000005
20
5.949978125
30
0
42
0.3639697834944294
0
VERTEX
8
0
10
42.748200000000004
20
6.745203125000001
30
0
0
VERTEX
8
0
10
42.748200000000004
20
8.494796875
30
0
42
0.0779216637457469
0
VERTEX
8
0
10
42.6960375
20
8.7493125
30
0
0
VERTEX
8
0
10
48.8757625
20
14.929037500000002
30
0
42
0.198912367379658
0
VERTEX
8
0
10
48.9204
20
15.036800000000001
30
0
0
VERTEX
8
0
10
48.9204
20
36.9824
30
0
42
0.198912367379658
0
VERTEX
8
0
10
48.8757625
20
37.090162500000005
30
0
0
VERTEX
8
0
10
47.6565625
20
38.3093625
30
0
42
0.198912367379658
0
VERTEX
8
0
10
47.5488
20
38.354
30
0
0
VERTEX
8
0
10
37.451925
20
38.354
30
0
0
VERTEX
8
0
10
32.6197625
20
43.1861625
30
0
42
0.198912367379658
0
VERTEX
8
0
10
32.512
20
43.2308
30
0
0
VERTEX
8
0
10
25.63664375
20
43.2308
30
0
42
0.3804947637737094
0
VERTEX
8
0
10
24.921040625
20
43.934000000000005
30
0
0
VERTEX
8
0
10
23.338959375
20
43.934000000000005
30
0
42
0.9520804327636221
0
VERTEX
8
0
10
23.338959375
20
42.426
30
0
0
VERTEX
8
0
10
24.921040625
20
42.426
30
0
42
0.3034683650038422
0
VERTEX
8
0
10
25.594878125
20
42.926
30
0
0
VERTEX
8
0
10
32.448875
20
42.926
30
0
0
VERTEX
8
0
10
37.281037500000004
20
38.0938375
30
0
42
0.198912367379658
0
VERTEX
8
0
10
37.3888
20
38.0492
30
0
0
VERTEX
8
0
10
47.485675
20
38.0492
30
0
0
VERTEX
8
0
10
48.6156
20
36.919275
30
0
0
VERTEX
8
0
10
48.6156
20
15.099925
30
0
0
VERTEX
8
0
10
42.534103125
20
9.018428125
30
0
42
0.671890704666655
0
VERTEX
8
0
10
41.0718
20
8.494796875
30
0
0
VERTEX
8
0
10
41.0718
20
6.745203125000001
30
0
0
VERTEX
8
0
10
41.078178125
20
6.6722875
30
0
0
VERTEX
8
0
10
41.090890625
20
6.60020625
30
0
0
VERTEX
8
0
10
41.109834375000005
20
6.529509375
30
0
0
VERTEX
8
0
10
41.134865625
20
6.460728125
30
0
0
VERTEX
8
0
10
41.165800000000004
20
6.39439375
30
0
0
VERTEX
8
0
10
41.202396875000005
20
6.331006250000001
30
0
0
VERTEX
8
0
10
41.244378125000004
20
6.271050000000001
30
0
0
VERTEX
8
0
10
41.291425000000004
20
6.21498125
30
0
0
VERTEX
8
0
10
41.34318125
20
6.163225000000001
30
0
0
VERTEX
8
0
10
41.39925
20
6.116178125
30
0
0
VERTEX
8
0
10
41.45920625
20
6.074196875
30
0
0
VERTEX
8
0
10
41.52259375
20
6.0376
30
0
0
VERTEX
8
0
10
41.588928125
20
6.006665625
30
0
0
VERTEX
8
0
10
41.657709375
20
5.9816343750000005
30
0
0
VERTEX
8
0
10
41.72840625
20
5.9626906250000005
30
0
0
VERTEX
8
0
10
41.8004875
20
5.949978125
30
0
0
VERTEX
8
0
10
41.873403125
20
5.9436
30
0
0
VERTEX
8
0
10
41.946596875000004
20
5.9436
30
0
0
SEQEND
0
POLYLINE
66
1
8
1_copper
10
0.0
20
0.0
30
0.0
70
1
0
VERTEX
8
0
10
36.42476875
20
42.433262500000005
30
0
42
0.9063473624237881
0
VERTEX
8
0
10
36.351040625
20
43.934000000000005
30
0
0
VERTEX
8
0
10
34.768959375
20
43.934000000000005
30
0
42
0.9520804327636221
0
VERTEX
8
0
10
34.768959375
20
42.426
30
0
0
VERTEX
8
0
10
36.351040625
20
42.426
30
0
0
SEQEND
0
POLYLINE
66
1
8
1_copper
10
0.0
20
0.0
30
0.0
70
1
0
VERTEX
8
0
10
39.4795125
20
5.949978125
30
0
42
0.3639697834944294
0
VERTEX
8
0
10
40.208200000000005
20
6.745203125000001
30
0
0
VERTEX
8
0
10
40.208200000000005
20
8.494796875
30
0
42
0.9572914311583669
0
VERTEX
8
0
10
38.531800000000004
20
8.494796875
30
0
0
VERTEX
8
0
10
38.531800000000004
20
6.745203125000001
30
0
0
VERTEX
8
0
10
38.538178125
20
6.6722875
30
0
0
VERTEX
8
0
10
38.550890625
20
6.60020625
30
0
0
VERTEX
8
0
10
38.569834375
20
6.529509375
30
0
0
VERTEX
8
0
10
38.594865625000004
20
6.460728125
30
0
0
VERTEX
8
0
10
38.625800000000005
20
6.39439375
30
0
0
VERTEX
8
0
10
38.662396875
20
6.331006250000001
30
0
0
VERTEX
8
0
10
38.704378125000005
20
6.271050000000001
30
0
0
VERTEX
8
0
10
38.751425000000005
20
6.21498125
30
0
0
VERTEX
8
0
10
38.80318125
20
6.163225000000001
30
0
0
VERTEX
8
0
10
38.85925
20
6.116178125
30
0
0
VERTEX
8
0
10
38.91920625
20
6.074196875
30
0
0
VERTEX
8
0
10
38.98259375
20
6.0376
30
0
0
VERTEX
8
0
10
39.048928125
20
6.006665625
30
0
0
VERTEX
8
0
10
39.117709375000004
20
5.9816343750000005
30
0
0
VERTEX
8
0
10
39.18840625
20
5.9626906250000005
30
0
0
VERTEX
8
0
10
39.2604875
20
5.949978125
30
0
0
VERTEX
8
0
10
39.333403125000004
20
5.9436
30
0
0
VERTEX
8
0
10
39.406596875000005
20
5.9436
30
0
0
SEQEND
0
POLYLINE
66
1
8
16_copper
10
0.0
20
0.0
30
0.0
70
1
0
VERTEX
8
0
10
47.960896875
20
5.131378125
30
0
42
0.18918278447443876
0
VERTEX
8
0
10
48.062962500000005
20
5.1754375
30
0
0
VERTEX
8
0
10
49.6885625
20
6.8010375000000005
30
0
42
0.198912367379658
0
VERTEX
8
0
10
49.733200000000004
20
6.9088
30
0
0
VERTEX
8
0
10
49.733200000000004
20
37.3888
30
0
42
0.198912367379658
0
VERTEX
8
0
10
49.6885625
20
37.4965625
30
0
0
VERTEX
8
0
10
48.062962500000005
20
39.1221625
30
0
42
0.198912367379658
0
VERTEX
8
0
10
47.955200000000005
20
39.1668
30
0
0
VERTEX
8
0
10
46.799125000000004
20
39.1668
30
0
0
VERTEX
8
0
10
42.779762500000004
20
43.1861625
30
0
42
0.198912367379658
0
VERTEX
8
0
10
42.672000000000004
20
43.2308
30
0
0
VERTEX
8
0
10
37.066643750000004
20
43.2308
30
0
42
0.3804947637737094
0
VERTEX
8
0
10
36.351040625
20
43.934000000000005
30
0
0
VERTEX
8
0
10
34.768959375
20
43.934000000000005
30
0
42
0.9520804327636221
0
VERTEX
8
0
10
34.768959375
20
42.426
30
0
0
VERTEX
8
0
10
36.351040625
20
42.426
30
0
42
0.3034683650038422
0
VERTEX
8
0
10
37.024878125
20
42.926
30
0
0
VERTEX
8
0
10
42.608875000000005
20
42.926
30
0
0
VERTEX
8
0
10
46.628237500000004
20
38.9066375
30
0
42
0.198912367379658
0
VERTEX
8
0
10
46.736000000000004
20
38.862
30
0
0
VERTEX
8
0
10
47.892075000000006
20
38.862
30
0
0
VERTEX
8
0
10
49.4284
20
37.325675000000004
30
0
0
VERTEX
8
0
10
49.4284
20
6.971925000000001
30
0
0
VERTEX
8
0
10
47.892075000000006
20
5.4356
30
0
0
VERTEX
8
0
10
41.109525000000005
20
5.4356
30
0
0
VERTEX
8
0
10
40.12581875
20
6.41930625
30
0
42
0.1012348693257388
0
VERTEX
8
0
10
40.208200000000005
20
6.745203125000001
30
0
0
VERTEX
8
0
10
40.208200000000005
20
8.494796875
30
0
42
0.9572914311583669
0
VERTEX
8
0
10
38.531800000000004
20
8.494796875
30
0
0
VERTEX
8
0
10
38.531800000000004
20
6.745203125000001
30
0
42
0.6412319884982366
0
VERTEX
8
0
10
39.943834375
20
6.170240625
30
0
0
VERTEX
8
0
10
40.9386375
20
5.1754375
30
0
42
0.198912367379658
0
VERTEX
8
0
10
41.0464
20
5.1308
30
0
0
VERTEX
8
0
10
47.955200000000005
20
5.1308
30
0
0
SEQEND
0
POLYLINE
66
1
8
1_copper
10
0.0
20
0.0
30
0.0
70
1
0
VERTEX
8
0
10
46.58476875
20
42.433262500000005
30
0
42
0.9063473624237881
0
VERTEX
8
0
10
46.511040625
20
43.934000000000005
30
0
0
VERTEX
8
0
10
44.928959375000005
20
43.934000000000005
30
0
42
0.9520804327636221
0
VERTEX
8
0
10
44.928959375000005
20
42.426
30
0
0
VERTEX
8
0
10
46.511040625
20
42.426
30
0
0
SEQEND
0
POLYLINE
66
1
8
1_copper
10
0.0
20
0.0
30
0.0
70
1
0
VERTEX
8
0
10
36.9395125
20
5.949978125
30
0
42
0.3639697834944294
0
VERTEX
8
0
10
37.6682
20
6.745203125000001
30
0
0
VERTEX
8
0
10
37.6682
20
8.494796875
30
0
42
0.9572914311583669
0
VERTEX
8
0
10
35.991800000000005
20
8.494796875
30
0
0
VERTEX
8
0
10
35.991800000000005
20
6.745203125000001
30
0
0
VERTEX
8
0
10
35.998178125
20
6.6722875
30
0
0
VERTEX
8
0
10
36.010890625
20
6.60020625
30
0
0
VERTEX
8
0
10
36.029834375
20
6.529509375
30
0
0
VERTEX
8
0
10
36.054865625000005
20
6.460728125
30
0
0
VERTEX
8
0
10
36.0858
20
6.39439375
30
0
0
VERTEX
8
0
10
36.122396875
20
6.331006250000001
30
0
0
VERTEX
8
0
10
36.164378125
20
6.271050000000001
30
0
0
VERTEX
8
0
10
36.211425
20
6.21498125
30
0
0
VERTEX
8
0
10
36.26318125
20
6.163225000000001
30
0
0
VERTEX
8
0
10
36.319250000000004
20
6.116178125
30
0
0
VERTEX
8
0
10
36.37920625
20
6.074196875
30
0
0
VERTEX
8
0
10
36.44259375
20
6.0376
30
0
0
VERTEX
8
0
10
36.508928125000004
20
6.006665625
30
0
0
VERTEX
8
0
10
36.577709375000005
20
5.9816343750000005
30
0
0
VERTEX
8
0
10
36.64840625
20
5.9626906250000005
30
0
0
VERTEX
8
0
10
36.720487500000004
20
5.949978125
30
0
0
VERTEX
8
0
10
36.793403125000005
20
5.9436
30
0
0
VERTEX
8
0
10
36.866596875
20
5.9436
30
0
0
SEQEND
0
POLYLINE
66
1
8
16_copper
10
0.0
20
0.0
30
0.0
70
1
0
VERTEX
8
0
10
48.773696875
20
3.505778125
30
0
42
0.18918278447443876
0
VERTEX
8
0
10
48.8757625
20
3.5498375
30
0
0
VERTEX
8
0
10
51.3141625
20
5.9882375
30
0
42
0.198912367379658
0
VERTEX
8
0
10
51.3588
20
6.096
30
0
0
VERTEX
8
0
10
51.3588
20
36.9824
30
0
42
0.198912367379658
0
VERTEX
8
0
10
51.3141625
20
37.090162500000005
30
0
0
VERTEX
8
0
10
46.0756
20
42.328725
30
0
0
VERTEX
8
0
10
46.0756
20
42.426
30
0
0
VERTEX
8
0
10
46.511040625
20
42.426
30
0
42
0.9520804327636221
0
VERTEX
8
0
10
46.511040625
20
43.934000000000005
30
0
0
VERTEX
8
0
10
44.928959375000005
20
43.934000000000005
30
0
42
0.9520804327636221
0
VERTEX
8
0
10
44.928959375000005
20
42.426
30
0
0
VERTEX
8
0
10
45.7708
20
42.426
30
0
0
VERTEX
8
0
10
45.7708
20
42.2656
30
0
42
0.198912367379658
0
VERTEX
8
0
10
45.8154375
20
42.1578375
30
0
0
VERTEX
8
0
10
51.054
20
36.919275
30
0
0
VERTEX
8
0
10
51.054
20
6.159125
30
0
0
VERTEX
8
0
10
48.704875
20
3.81
30
0
0
VERTEX
8
0
10
40.296725
20
3.81
30
0
0
VERTEX
8
0
10
37.616037500000004
20
6.4906875
30
0
42
0.0779216637457469
0
VERTEX
8
0
10
37.6682
20
6.745203125000001
30
0
0
VERTEX
8
0
10
37.6682
20
8.494796875
30
0
42
0.9572914311583669
0
VERTEX
8
0
10
35.991800000000005
20
8.494796875
30
0
0
VERTEX
8
0
10
35.991800000000005
20
6.745203125000001
30
0
42
0.671890704666655
0
VERTEX
8
0
10
37.454103125
20
6.221571875
30
0
0
VERTEX
8
0
10
40.1258375
20
3.5498375
30
0
42
0.198912367379658
0
VERTEX
8
0
10
40.2336
20
3.5052000000000003
30
0
0
VERTEX
8
0
10
48.768
20
3.5052000000000003
30
0
0
SEQEND
0
CIRCLE
8
drills_PTH
10
26.67
20
7.62
30
0
40
0.5
0
CIRCLE
8
drills_PTH
10
16.51
20
35.56
30
0
40
0.5
0
CIRCLE
8
drills_PTH
10
13.97
20
35.56
30
0
40
0.5
0
CIRCLE
8
drills_PTH
10
11.43
20
35.56
30
0
40
0.5
0
CIRCLE
8
drills_PTH
10
11.43
20
7.62
30
0
40
0.5
0
CIRCLE
8
drills_PTH
10
13.97
20
7.62
30
0
40
0.5
0
CIRCLE
8
drills_PTH
10
16.51
20
7.62
30
0
40
0.5
0
CIRCLE
8
drills_PTH
10
19.05
20
7.62
30
0
40
0.5
0
CIRCLE
8
drills_PTH
10
21.59
20
7.62
30
0
40
0.5
0
CIRCLE
8
drills_PTH
10
24.130000000000003
20
7.62
30
0
40
0.5
0
CIRCLE
8
drills_PTH
10
19.05
20
35.56
30
0
40
0.5
0
CIRCLE
8
drills_PTH
10
29.21
20
7.62
30
0
40
0.5
0
CIRCLE
8
drills_PTH
10
31.75
20
7.62
30
0
40
0.5
0
CIRCLE
8
drills_PTH
10
34.29
20
7.62
30
0
40
0.5
0
CIRCLE
8
drills_PTH
10
36.83
20
7.62
30
0
40
0.5
0
CIRCLE
8
drills_PTH
10
39.370000000000005
20
7.62
30
0
40
0.5
0
CIRCLE
8
drills_PTH
10
41.910000000000004
20
7.62
30
0
40
0.5
0
CIRCLE
8
drills_PTH
10
44.45
20
7.62
30
0
40
0.5
0
CIRCLE
8
drills_PTH
10
46.99
20
7.62
30
0
40
0.5
0
CIRCLE
8
drills_PTH
10
41.910000000000004
20
35.56
30
0
40
0.5
0
CIRCLE
8
drills_PTH
10
45.72
20
45.72
30
0
40
0.5
0
CIRCLE
8
drills_PTH
10
24.130000000000003
20
48.260000000000005
30
0
40
0.5
0
CIRCLE
8
drills_PTH
10
24.130000000000003
20
45.72
30
0
40
0.5
0
CIRCLE
8
drills_PTH
10
24.130000000000003
20
43.18
30
0
40
0.5
0
CIRCLE
8
drills_PTH
10
35.56
20
48.260000000000005
30
0
40
0.5
0
CIRCLE
8
drills_PTH
10
35.56
20
45.72
30
0
40
0.5
0
CIRCLE
8
drills_PTH
10
35.56
20
43.18
30
0
40
0.5
0
CIRCLE
8
drills_PTH
10
46.99
20
35.56
30
0
40
0.5
0
CIRCLE
8
drills_PTH
10
44.45
20
35.56
30
0
40
0.5
0
CIRCLE
8
drills_PTH
10
45.72
20
43.18
30
0
40
0.5
0
CIRCLE
8
drills_PTH
10
39.370000000000005
20
35.56
30
0
40
0.5
0
CIRCLE
8
drills_PTH
10
36.83
20
35.56
30
0
40
0.5
0
CIRCLE
8
drills_PTH
10
34.29
20
35.56
30
0
40
0.5
0
CIRCLE
8
drills_PTH
10
31.75
20
35.56
30
0
40
0.5
0
CIRCLE
8
drills_PTH
10
29.21
20
35.56
30
0
40
0.5
0
CIRCLE
8
drills_PTH
10
26.67
20
35.56
30
0
40
0.5
0
CIRCLE
8
drills_PTH
10
24.130000000000003
20
35.56
30
0
40
0.5
0
CIRCLE
8
drills_PTH
10
21.59
20
35.56
30
0
40
0.5
0
ENDSEC
0
EOF